<svg width="22" height="20" viewBox="0 0 22 20" fill="none" xmlns="http://www.w3.org/2000/svg">
<path d="M21.1881 2.6472L12.6566 0.555505C12.0265 0.401038 11.4184 0.878046 11.4184 1.52674V18.7482C11.4184 19.3004 11.8662 19.7482 12.4184 19.7482H12.5894C13.1329 19.7482 13.5697 19.3144 13.5695 18.7709C13.569 17.4575 13.5634 15.2781 13.5671 14.95C13.5674 14.8573 13.6118 14.7685 13.6904 14.703C13.7691 14.6375 13.8757 14.6006 13.9869 14.6005H18.0828C18.194 14.6007 18.3004 14.6377 18.379 14.7031C18.4576 14.7686 18.5019 14.8574 18.5023 14.95V18.7482C18.5023 19.3004 18.95 19.7482 19.5023 19.7482H21.0707C21.1819 19.7479 21.2884 19.711 21.367 19.6455C21.4456 19.58 21.4899 19.4912 21.4902 19.3986V2.98316C21.491 2.90735 21.4619 2.83341 21.4073 2.77276C21.3527 2.7121 21.2757 2.66776 21.1881 2.6472ZM18.5524 7.15918H13.5169C13.4056 7.15918 13.2988 7.12232 13.22 7.0567C13.1413 6.99109 13.0971 6.90209 13.0971 6.80929C13.0971 6.7165 13.1413 6.6275 13.22 6.56189C13.2988 6.49627 13.4056 6.45941 13.5169 6.45941H18.5524C18.6637 6.45941 18.7705 6.49627 18.8493 6.56189C18.928 6.6275 18.9723 6.7165 18.9723 6.80929C18.9723 6.90209 18.928 6.99109 18.8493 7.0567C18.7705 7.12232 18.6637 7.15918 18.5524 7.15918ZM18.9718 8.90757C18.9715 9.00019 18.9272 9.08894 18.8486 9.15443C18.77 9.21992 18.6635 9.25684 18.5524 9.25711H13.5169C13.4056 9.25711 13.2989 9.22027 13.2202 9.15468C13.1415 9.0891 13.0973 9.00015 13.0973 8.9074C13.0973 8.81465 13.1415 8.7257 13.2202 8.66011C13.2989 8.59453 13.4056 8.55769 13.5169 8.55769H18.5524C18.6636 8.55796 18.7702 8.59492 18.8488 8.66049C18.9274 8.72606 18.9716 8.81489 18.9718 8.90757ZM18.5524 5.06055H13.5169C13.4619 5.06055 13.4073 5.05151 13.3564 5.03395C13.3055 5.01638 13.2593 4.99063 13.2203 4.95818C13.1814 4.92572 13.1505 4.88719 13.1294 4.84478C13.1083 4.80237 13.0975 4.75692 13.0975 4.71101C13.0975 4.66511 13.1083 4.61966 13.1294 4.57725C13.1505 4.53484 13.1814 4.49631 13.2203 4.46385C13.2593 4.4314 13.3055 4.40565 13.3564 4.38808C13.4073 4.37052 13.4619 4.36148 13.5169 4.36148H18.5524C18.6614 4.36434 18.7648 4.40244 18.8407 4.46771C18.9166 4.53298 18.959 4.6203 18.959 4.71119C18.959 4.80207 18.9166 4.88939 18.8407 4.95466C18.7648 5.01993 18.6614 5.05769 18.5524 5.06055ZM13.5169 11.3554C13.4079 11.3525 13.3045 11.3144 13.2286 11.2492C13.1528 11.1839 13.1103 11.0966 13.1103 11.0057C13.1103 10.9148 13.1528 10.8275 13.2286 10.7622C13.3045 10.6969 13.4079 10.6588 13.5169 10.656H18.5524C18.6637 10.656 18.7705 10.6928 18.8493 10.7584C18.928 10.8241 18.9723 10.9131 18.9723 11.0059C18.9723 11.0986 18.928 11.1876 18.8493 11.2533C18.7705 11.3189 18.6637 11.3557 18.5524 11.3557L13.5169 11.3554ZM1.77859 4.39399C1.16074 4.26791 0.58184 4.73817 0.578656 5.36874L0.507812 19.3986C0.508143 19.4912 0.552441 19.58 0.631031 19.6455C0.709621 19.711 0.816117 19.7479 0.92726 19.7482H9.57955C10.1318 19.7482 10.5796 19.3004 10.5796 18.7482V7.82303C10.5796 6.8726 9.91067 6.05345 8.97944 5.86342L1.77859 4.39399ZM3.44561 8.55734H8.48106C8.59242 8.55734 8.69921 8.5942 8.77795 8.65982C8.85669 8.72543 8.90093 8.81443 8.90093 8.90722C8.90093 9.00002 8.85669 9.08902 8.77795 9.15463C8.69921 9.22025 8.59242 9.25711 8.48106 9.25711H3.44561C3.33426 9.25711 3.22746 9.22025 3.14872 9.15463C3.06998 9.08902 3.02575 9.00002 3.02575 8.90722C3.02575 8.81443 3.06998 8.72543 3.14872 8.65982C3.22746 8.5942 3.33426 8.55734 3.44561 8.55734ZM3.44561 10.6556H8.48106C8.59242 10.6556 8.69921 10.6925 8.77795 10.7581C8.85669 10.8237 8.90093 10.9127 8.90093 11.0055C8.90093 11.0983 8.85669 11.1873 8.77795 11.2529C8.69921 11.3185 8.59242 11.3554 8.48106 11.3554H3.44561C3.33426 11.3554 3.22746 11.3185 3.14872 11.2529C3.06998 11.1873 3.02575 11.0983 3.02575 11.0055C3.02575 10.9127 3.06998 10.8237 3.14872 10.7581C3.22746 10.6925 3.33426 10.6556 3.44561 10.6556ZM3.44561 12.7539H8.48106C8.59242 12.7539 8.69921 12.7908 8.77795 12.8564C8.85669 12.922 8.90093 13.011 8.90093 13.1038C8.90093 13.1966 8.85669 13.2856 8.77795 13.3512C8.69921 13.4168 8.59242 13.4537 8.48106 13.4537H3.44561C3.33426 13.4537 3.22746 13.4168 3.14872 13.3512C3.06998 13.2856 3.02575 13.1966 3.02575 13.1038C3.02575 13.011 3.06998 12.922 3.14872 12.8564C3.22746 12.7908 3.33426 12.7539 3.44561 12.7539ZM3.44561 14.8522H8.48106C8.59242 14.8522 8.69921 14.889 8.77795 14.9547C8.85669 15.0203 8.90093 15.1093 8.90093 15.2021C8.90093 15.2949 8.85669 15.3839 8.77795 15.4495C8.69921 15.5151 8.59242 15.5519 8.48106 15.5519H3.44561C3.33426 15.5519 3.22746 15.5151 3.14872 15.4495C3.06998 15.3839 3.02575 15.2949 3.02575 15.2021C3.02575 15.1093 3.06998 15.0203 3.14872 14.9547C3.22746 14.889 3.33426 14.8522 3.44561 14.8522Z" fill="#00009F"/>
<path d="M14.4062 19.0496C14.4062 19.4359 14.7194 19.7491 15.1057 19.7491H16.6628C17.2151 19.7491 17.6628 19.3013 17.6628 18.7491V16.3008C17.6628 15.7485 17.2151 15.3008 16.6628 15.3008H15.4063C14.854 15.3008 14.4062 15.7485 14.4062 16.3008V19.0496Z" fill="#00009F"/>
</svg>
