<svg width="17" height="17" viewBox="0 0 17 17" fill="none" xmlns="http://www.w3.org/2000/svg">
<g clip-path="url(#clip0_495_6452)">
<path d="M16.6122 13.7483C16.3286 13.5515 15.9392 13.6218 15.7424 13.9054C14.9504 15.0463 12.6451 15.047 11.8526 13.9054C11.7951 13.8225 11.7183 13.7547 11.6289 13.7079C11.5395 13.6611 11.4401 13.6367 11.3392 13.6367C11.2383 13.6367 11.1389 13.6611 11.0495 13.7079C10.96 13.7547 10.8833 13.8224 10.8257 13.9053C10.0337 15.0463 7.72842 15.047 6.93596 13.9053C6.87842 13.8224 6.80166 13.7547 6.71225 13.7079C6.62283 13.6612 6.52343 13.6367 6.42252 13.6367C6.32161 13.6367 6.2222 13.6612 6.13279 13.708C6.04338 13.7547 5.96663 13.8225 5.90909 13.9054C5.11706 15.0464 2.8118 15.047 2.01933 13.9054C1.82249 13.6218 1.43302 13.5515 1.14952 13.7483C0.865964 13.9451 0.795652 14.3345 0.992494 14.6181C2.13992 16.2711 4.91388 16.45 6.42252 15.179C7.74924 16.2967 10.028 16.2836 11.3392 15.179C12.8474 16.4497 15.6228 16.2696 16.7692 14.6181C16.966 14.3345 16.8957 13.9451 16.6122 13.7483ZM3.94338 10.1995C4.28857 10.1995 4.56838 9.9197 4.56838 9.57455V8.63712H10.1933V9.57455C10.1933 9.9197 10.4731 10.1995 10.8183 10.1995C11.1635 10.1995 11.4433 9.9197 11.4433 9.57455V2.76256C11.4433 2.28012 11.8358 1.88763 12.3183 1.88763C12.8008 1.88763 13.1933 2.28012 13.1933 2.76256C13.1933 3.10771 13.4731 3.38752 13.8183 3.38752C14.1635 3.38752 14.4433 3.10771 14.4433 2.76256C14.4433 1.59091 13.49 0.637695 12.3183 0.637695C11.1467 0.637695 10.1933 1.59091 10.1933 2.76256V4.57492H4.56838V2.76256C4.56838 2.28012 4.96088 1.88763 5.44337 1.88763C5.92587 1.88763 6.31837 2.28012 6.31837 2.76256C6.31837 3.10771 6.59818 3.38752 6.94337 3.38752C7.28855 3.38752 7.56836 3.10771 7.56836 2.76256C7.56833 1.59091 6.61509 0.637695 5.44337 0.637695C4.27166 0.637695 3.31839 1.59091 3.31839 2.76256V9.57458C3.31839 9.9197 3.5982 10.1995 3.94338 10.1995ZM4.56838 5.82482H10.1933V7.38722H4.56838V5.82482Z" fill="#00009F"/>
<path d="M6.42262 12.3668C7.05183 12.8969 7.92452 13.1994 8.88092 13.1994C9.83732 13.1994 10.71 12.8969 11.3392 12.3668C12.8475 13.6375 15.6228 13.4573 16.7692 11.8059C16.9661 11.5223 16.8957 11.1329 16.6122 10.9361C16.3286 10.7393 15.9392 10.8096 15.7424 11.0931C14.9504 12.2341 12.6451 12.2347 11.8526 11.0931C11.7951 11.0102 11.7183 10.9425 11.6289 10.8957C11.5395 10.8489 11.4401 10.8245 11.3392 10.8245C11.2383 10.8245 11.1389 10.8489 11.0495 10.8957C10.96 10.9425 10.8833 11.0102 10.8257 11.0931C10.0337 12.2341 7.72842 12.2347 6.93596 11.0931C6.87842 11.0102 6.80166 10.9425 6.71225 10.8957C6.62283 10.8489 6.52343 10.8245 6.42252 10.8245C6.32161 10.8245 6.2222 10.8489 6.13279 10.8957C6.04338 10.9425 5.96663 11.0102 5.90909 11.0931C5.11706 12.2341 2.8118 12.2347 2.01933 11.0931C1.82249 10.8096 1.43302 10.7393 1.14952 10.9361C0.865964 11.1329 0.795652 11.5223 0.992494 11.8059C2.13992 13.4588 4.91388 13.6378 6.42262 12.3668Z" fill="#00009F"/>
</g>
<defs>
<clipPath id="clip0_495_6452">
<rect width="16" height="16" fill="white" transform="translate(0.880859 0.325195)"/>
</clipPath>
</defs>
</svg>
