<svg width="24" height="17" viewBox="0 0 24 17" fill="none" xmlns="http://www.w3.org/2000/svg">
<path d="M22.1534 1.05247V5.77974C22.1534 6.55128 21.8469 7.29122 21.3014 7.83678C20.7558 8.38234 20.0159 8.68883 19.2443 8.68883H4.69886C3.92732 8.68883 3.18739 8.38234 2.64183 7.83678C2.09627 7.29122 1.78977 6.55128 1.78977 5.77974V1.05247H22.1534ZM22.1534 0.325195H1.78977C1.59689 0.325195 1.4119 0.401819 1.27551 0.538209C1.13912 0.674599 1.0625 0.859583 1.0625 1.05247V5.77974C1.0625 6.25728 1.15656 6.73013 1.3393 7.17132C1.52205 7.6125 1.7899 8.01337 2.12757 8.35104C2.46523 8.68871 2.8661 8.95656 3.30729 9.1393C3.74847 9.32205 4.22133 9.4161 4.69886 9.4161H19.2443C19.7219 9.4161 20.1947 9.32205 20.6359 9.1393C21.0771 8.95656 21.4779 8.68871 21.8156 8.35104C22.1533 8.01337 22.4211 7.6125 22.6039 7.17132C22.7866 6.73013 22.8807 6.25728 22.8807 5.77974V1.05247C22.8807 0.859583 22.8041 0.674599 22.6677 0.538209C22.5313 0.401819 22.3463 0.325195 22.1534 0.325195Z" fill="#00009F" stroke="#00009F" stroke-width="0.5"/>
<path d="M4.6986 7.17381H19.2441C19.3405 7.17381 19.433 7.13549 19.5012 7.0673C19.5694 6.9991 19.6077 6.90661 19.6077 6.81017C19.6077 6.71373 19.5694 6.62123 19.5012 6.55304C19.433 6.48484 19.3405 6.44653 19.2441 6.44653H4.6986C4.60215 6.44653 4.50966 6.48484 4.44147 6.55304C4.37327 6.62123 4.33496 6.71373 4.33496 6.81017C4.33496 6.90661 4.37327 6.9991 4.44147 7.0673C4.50966 7.13549 4.60215 7.17381 4.6986 7.17381Z" fill="#00009F" stroke="#00009F" stroke-width="0.5"/>
<path d="M20.335 5.50695H3.60778C3.51133 5.50695 3.41884 5.46864 3.35065 5.40044C3.28245 5.33225 3.24414 5.23975 3.24414 5.14331C3.24414 5.04687 3.28245 4.95438 3.35065 4.88618C3.41884 4.81799 3.51133 4.77967 3.60778 4.77967H20.335C20.4315 4.77967 20.524 4.81799 20.5922 4.88618C20.6604 4.95438 20.6987 5.04687 20.6987 5.14331C20.6987 5.23975 20.6604 5.33225 20.5922 5.40044C20.524 5.46864 20.4315 5.50695 20.335 5.50695ZM20.335 2.87058H18.8805C18.7841 2.87058 18.6916 2.83227 18.6234 2.76408C18.5552 2.69588 18.5169 2.60339 18.5169 2.50695C18.5169 2.4105 18.5552 2.31801 18.6234 2.24982C18.6916 2.18162 18.7841 2.14331 18.8805 2.14331H20.335C20.4315 2.14331 20.524 2.18162 20.5922 2.24982C20.6604 2.31801 20.6987 2.4105 20.6987 2.50695C20.6987 2.60339 20.6604 2.69588 20.5922 2.76408C20.524 2.83227 20.4315 2.87058 20.335 2.87058ZM11.9714 16.3251C11.875 16.3251 11.7825 16.2868 11.7143 16.2186C11.6461 16.1504 11.6078 16.0579 11.6078 15.9615V10.8706C11.6078 10.7741 11.6461 10.6816 11.7143 10.6135C11.7825 10.5453 11.875 10.5069 11.9714 10.5069C12.0679 10.5069 12.1603 10.5453 12.2285 10.6135C12.2967 10.6816 12.335 10.7741 12.335 10.8706V15.9615C12.335 16.0579 12.2967 16.1504 12.2285 16.2186C12.1603 16.2868 12.0679 16.3251 11.9714 16.3251ZM8.33505 14.1433C8.23861 14.1433 8.14611 14.105 8.07792 14.0368C8.00972 13.9686 7.97141 13.8761 7.97141 13.7797V10.8706C7.97141 10.7741 8.00972 10.6816 8.07792 10.6135C8.14611 10.5453 8.23861 10.5069 8.33505 10.5069C8.43149 10.5069 8.52398 10.5453 8.59218 10.6135C8.66037 10.6816 8.69869 10.7741 8.69869 10.8706V13.7797C8.69869 13.8761 8.66037 13.9686 8.59218 14.0368C8.52398 14.105 8.43149 14.1433 8.33505 14.1433ZM15.6078 14.1433C15.5113 14.1433 15.4188 14.105 15.3506 14.0368C15.2825 13.9686 15.2441 13.8761 15.2441 13.7797V10.8706C15.2441 10.7741 15.2825 10.6816 15.3506 10.6135C15.4188 10.5453 15.5113 10.5069 15.6078 10.5069C15.7042 10.5069 15.7967 10.5453 15.8649 10.6135C15.9331 10.6816 15.9714 10.7741 15.9714 10.8706V13.7797C15.9714 13.8761 15.9331 13.9686 15.8649 14.0368C15.7967 14.105 15.7042 14.1433 15.6078 14.1433Z" fill="#00009F" stroke="#00009F" stroke-width="0.5"/>
<path d="M8.33532 14.1434C8.23887 14.1434 8.14638 14.1051 8.07819 14.0369C8.00999 13.9687 7.97168 13.8762 7.97168 13.7798V10.8707C7.97168 10.7743 8.00999 10.6818 8.07819 10.6136C8.14638 10.5454 8.23887 10.5071 8.33532 10.5071C8.43176 10.5071 8.52425 10.5454 8.59245 10.6136C8.66064 10.6818 8.69895 10.7743 8.69895 10.8707V13.7798C8.69895 13.8762 8.66064 13.9687 8.59245 14.0369C8.52425 14.1051 8.43176 14.1434 8.33532 14.1434ZM15.608 14.1434C15.5116 14.1434 15.4191 14.1051 15.3509 14.0369C15.2827 13.9687 15.2444 13.8762 15.2444 13.7798V10.8707C15.2444 10.7743 15.2827 10.6818 15.3509 10.6136C15.4191 10.5454 15.5116 10.5071 15.608 10.5071C15.7045 10.5071 15.797 10.5454 15.8652 10.6136C15.9334 10.6818 15.9717 10.7743 15.9717 10.8707V13.7798C15.9717 13.8762 15.9334 13.9687 15.8652 14.0369C15.797 14.1051 15.7045 14.1434 15.608 14.1434ZM19.2444 16.3253C19.148 16.3253 19.0555 16.287 18.9873 16.2188C18.9191 16.1506 18.8808 16.0581 18.8808 15.9616V10.8707C18.8808 10.7743 18.9191 10.6818 18.9873 10.6136C19.0555 10.5454 19.148 10.5071 19.2444 10.5071C19.3408 10.5071 19.4333 10.5454 19.5015 10.6136C19.5697 10.6818 19.608 10.7743 19.608 10.8707V15.9616C19.608 16.0581 19.5697 16.1506 19.5015 16.2188C19.4333 16.287 19.3408 16.3253 19.2444 16.3253Z" fill="#00009F" stroke="#00009F" stroke-width="0.5"/>
<path d="M19.2441 16.3253C19.1476 16.3253 19.0551 16.287 18.9869 16.2188C18.9187 16.1506 18.8804 16.0581 18.8804 15.9616V10.8707C18.8804 10.7743 18.9187 10.6818 18.9869 10.6136C19.0551 10.5454 19.1476 10.5071 19.2441 10.5071C19.3405 10.5071 19.433 10.5454 19.5012 10.6136C19.5694 10.6818 19.6077 10.7743 19.6077 10.8707V15.9616C19.6077 16.0581 19.5694 16.1506 19.5012 16.2188C19.433 16.287 19.3405 16.3253 19.2441 16.3253ZM4.6986 16.3253C4.60215 16.3253 4.50966 16.287 4.44147 16.2188C4.37327 16.1506 4.33496 16.0581 4.33496 15.9616V10.8707C4.33496 10.7743 4.37327 10.6818 4.44147 10.6136C4.50966 10.5454 4.60215 10.5071 4.6986 10.5071C4.79504 10.5071 4.88753 10.5454 4.95573 10.6136C5.02392 10.6818 5.06223 10.7743 5.06223 10.8707V15.9616C5.06223 16.0581 5.02392 16.1506 4.95573 16.2188C4.88753 16.287 4.79504 16.3253 4.6986 16.3253Z" fill="#00009F" stroke="#00009F" stroke-width="0.5"/>
<path d="M4.6986 16.3253C4.60215 16.3253 4.50966 16.287 4.44147 16.2188C4.37327 16.1506 4.33496 16.0581 4.33496 15.9616V10.8707C4.33496 10.7743 4.37327 10.6818 4.44147 10.6136C4.50966 10.5454 4.60215 10.5071 4.6986 10.5071C4.79504 10.5071 4.88753 10.5454 4.95573 10.6136C5.02392 10.6818 5.06223 10.7743 5.06223 10.8707V15.9616C5.06223 16.0581 5.02392 16.1506 4.95573 16.2188C4.88753 16.287 4.79504 16.3253 4.6986 16.3253Z" fill="#00009F" stroke="#00009F" stroke-width="0.5"/>
</svg>
