<svg width="17" height="17" viewBox="0 0 17 17" fill="none" xmlns="http://www.w3.org/2000/svg">
<path d="M15.4471 15.0944H15.242V11.4021H15.4471C15.6103 11.4021 15.7669 11.3373 15.8823 11.2219C15.9977 11.1065 16.0625 10.9499 16.0625 10.7867C16.0625 10.6235 15.9977 10.467 15.8823 10.3516C15.7669 10.2362 15.6103 10.1713 15.4471 10.1713H13.601V2.58161C13.6005 1.9833 13.3627 1.40963 12.9396 0.986563C12.5165 0.563498 11.9429 0.32563 11.3446 0.325195H4.78045C4.18215 0.32563 3.60847 0.563498 3.18541 0.986563C2.76234 1.40963 2.52447 1.9833 2.52404 2.58161V10.1713H0.677885C0.514674 10.1713 0.358149 10.2362 0.242742 10.3516C0.127335 10.467 0.0625 10.6235 0.0625 10.7867C0.0625 10.9499 0.127335 11.1065 0.242742 11.2219C0.358149 11.3373 0.514674 11.4021 0.677885 11.4021H0.883013V15.0944H0.677885C0.514674 15.0944 0.358149 15.1593 0.242742 15.2747C0.127335 15.3901 0.0625 15.5466 0.0625 15.7098C0.0625 15.873 0.127335 16.0295 0.242742 16.145C0.358149 16.2604 0.514674 16.3252 0.677885 16.3252H15.4471C15.6103 16.3252 15.7669 16.2604 15.8823 16.145C15.9977 16.0295 16.0625 15.873 16.0625 15.7098C16.0625 15.5466 15.9977 15.3901 15.8823 15.2747C15.7669 15.1593 15.6103 15.0944 15.4471 15.0944ZM3.75481 2.58161C3.75481 2.01627 4.21512 1.55596 4.78045 1.55596H11.3446C11.9099 1.55596 12.3702 2.01627 12.3702 2.58161V10.1713H3.75481V2.58161ZM4.16506 15.0944H2.11378V11.4021H4.16506V15.0944ZM7.44712 15.0944H5.39583V11.4021H7.44712V15.0944ZM10.7292 15.0944H8.67789V11.4021H10.7292V15.0944ZM14.0112 15.0944H11.9599V11.4021H14.0112V15.0944Z" fill="#00009F"/>
</svg>
