<svg width="17" height="17" viewBox="0 0 17 17" fill="none" xmlns="http://www.w3.org/2000/svg">
<path d="M9.50586 9.2627V5.9502C9.50586 5.4332 9.92636 5.0127 10.4434 5.0127C10.9604 5.0127 11.3809 5.4332 11.3809 5.9502H12.6309C12.6309 4.74405 11.6495 3.7627 10.4434 3.7627C10.119 3.76237 9.79867 3.83464 9.50586 3.9742V3.7627C9.50586 2.55655 10.4872 1.5752 11.6934 1.5752C12.8995 1.5752 13.8809 2.55655 13.8809 3.7627H15.1309C15.1309 1.8673 13.5888 0.325195 11.6934 0.325195C10.532 0.325195 9.50351 0.904195 8.88086 1.78857C8.25821 0.904195 7.22968 0.325195 6.06836 0.325195C4.17296 0.325195 2.63086 1.8673 2.63086 3.7627H3.88086C3.88086 2.55655 4.86221 1.5752 6.06836 1.5752C7.27451 1.5752 8.25586 2.55655 8.25586 3.7627V3.9742C7.96305 3.83464 7.64272 3.76237 7.31836 3.7627C6.11221 3.7627 5.13086 4.74405 5.13086 5.9502H6.38086C6.38086 5.4332 6.80136 5.0127 7.31836 5.0127C7.83536 5.0127 8.25586 5.4332 8.25586 5.9502V9.2627H0.880859V9.8877C0.880859 11.7658 2.40898 13.2939 4.28711 13.2939H8.25586V15.0752H5.75586V16.3252H12.0059V15.0752H9.50586V13.2939H13.4746C15.3527 13.2939 16.8809 11.7658 16.8809 9.8877V9.2627H9.50586ZM13.4746 12.0439H4.28711C3.31543 12.0439 2.49178 11.3978 2.22313 10.5127H15.5386C15.27 11.3978 14.4463 12.0439 13.4746 12.0439H13.4746ZM15.1309 5.3252C15.1309 5.67042 14.8511 5.9502 14.5059 5.9502C14.1606 5.9502 13.8809 5.67042 13.8809 5.3252C13.8809 4.97997 14.1606 4.7002 14.5059 4.7002C14.8511 4.7002 15.1309 4.97997 15.1309 5.3252ZM15.1309 7.5127C15.1309 7.85792 14.8511 8.1377 14.5059 8.1377C14.1606 8.1377 13.8809 7.85792 13.8809 7.5127C13.8809 7.16747 14.1606 6.8877 14.5059 6.8877C14.8511 6.8877 15.1309 7.16747 15.1309 7.5127ZM12.0059 6.8877C12.3511 6.8877 12.6309 7.16747 12.6309 7.5127C12.6309 7.85792 12.3511 8.1377 12.0059 8.1377C11.6606 8.1377 11.3809 7.85792 11.3809 7.5127C11.3809 7.16747 11.6606 6.8877 12.0059 6.8877ZM2.63086 5.3252C2.63086 4.97997 2.91063 4.7002 3.25586 4.7002C3.60108 4.7002 3.88086 4.97997 3.88086 5.3252C3.88086 5.67042 3.60108 5.9502 3.25586 5.9502C2.91063 5.9502 2.63086 5.67042 2.63086 5.3252ZM2.63086 7.5127C2.63086 7.16747 2.91063 6.8877 3.25586 6.8877C3.60108 6.8877 3.88086 7.16747 3.88086 7.5127C3.88086 7.85792 3.60108 8.1377 3.25586 8.1377C2.91063 8.1377 2.63086 7.85792 2.63086 7.5127ZM5.75586 8.1377C5.41063 8.1377 5.13086 7.85792 5.13086 7.5127C5.13086 7.16747 5.41063 6.8877 5.75586 6.8877C6.10108 6.8877 6.38086 7.16747 6.38086 7.5127C6.38086 7.85792 6.10108 8.1377 5.75586 8.1377Z" fill="#00009F"/>
</svg>
