<svg width="13" height="12" viewBox="0 0 13 12" fill="none" xmlns="http://www.w3.org/2000/svg">
<path d="M2.92835 7.41152V8.15521C2.92835 8.45269 3.07709 8.62374 3.17377 8.71298L3.38944 8.89891H9.90421L10.1273 8.71298C10.2039 8.64195 10.2647 8.55556 10.3057 8.45946C10.3467 8.36335 10.367 8.25968 10.3653 8.15521V7.41152H2.92835ZM3.3002 0.718262C3.93234 0.718262 4.49011 1.03805 4.82477 1.52145C5.08262 1.44984 5.35444 1.44503 5.61466 1.50748C5.87487 1.56993 6.11491 1.69759 6.31216 1.87843C6.36367 1.82756 6.43314 1.79904 6.50552 1.79904C6.57791 1.79904 6.64738 1.82756 6.69888 1.87843L6.96661 2.15359C7.07073 2.25771 7.07073 2.4362 6.96661 2.54775L4.75784 4.75653C4.70508 4.80786 4.63437 4.83658 4.56076 4.83658C4.48715 4.83658 4.41644 4.80786 4.36368 4.75653L4.09595 4.4888C4.04944 4.43805 4.02364 4.37171 4.02364 4.30287C4.02364 4.23403 4.04944 4.1677 4.09595 4.11695C3.85583 3.85991 3.70857 3.52996 3.67757 3.17959C3.64658 2.82921 3.73364 2.47854 3.9249 2.18334C3.83789 2.04863 3.70966 1.94565 3.55933 1.88977C3.40901 1.83389 3.24465 1.8281 3.09077 1.87326C2.93689 1.91842 2.80173 2.01211 2.70544 2.14037C2.60916 2.26862 2.55692 2.42456 2.5565 2.58494V5.93156H12.0386C12.3361 5.93156 12.5964 6.18442 12.5964 6.48934V6.86118C12.5964 7.1661 12.3435 7.41895 12.0386 7.41895H11.8527V8.16265C11.8531 8.47705 11.7871 8.78799 11.6589 9.07508C11.5307 9.36217 11.3433 9.61893 11.109 9.82853V10.5722C11.109 10.8846 10.8561 11.1374 10.5512 11.1374H10.1794C10.0314 11.1374 9.88958 11.0787 9.78497 10.9741C9.68037 10.8695 9.62161 10.7276 9.62161 10.5797V10.3937H3.67205V10.5797C3.67205 10.8846 3.41919 11.1374 3.11427 11.1374H2.74243C2.66855 11.1374 2.59541 11.1228 2.52725 11.0943C2.45908 11.0658 2.39726 11.024 2.34537 10.9714C2.29348 10.9189 2.25255 10.8565 2.22496 10.788C2.19737 10.7194 2.18367 10.6461 2.18466 10.5722V9.82109C1.95032 9.61149 1.76292 9.35473 1.63476 9.06764C1.50659 8.78055 1.44055 8.46961 1.44096 8.15521V7.41152H1.25504C1.10711 7.41152 0.965235 7.35275 0.860633 7.24815C0.756031 7.14355 0.697266 7.00168 0.697266 6.85375V6.4819C0.697266 6.18442 0.950122 5.92413 1.25504 5.92413H1.44096V2.5775C1.44096 2.0844 1.63684 1.61149 1.98552 1.26282C2.33419 0.914145 2.8071 0.718262 3.3002 0.718262Z" fill="#FF7800"/>
</svg>
