<svg width="12" height="8" viewBox="0 0 12 8" fill="none" xmlns="http://www.w3.org/2000/svg">
<path d="M6.84199 2.88336V4.66822H10.4117V3.47831C10.4117 3.32052 10.349 3.16919 10.2375 3.05762C10.1259 2.94604 9.97457 2.88336 9.81677 2.88336H6.84199ZM0.297478 0.206055H0.892434C1.05605 0.206055 1.18991 0.33992 1.18991 0.503533V4.37075H5.3546V1.69344C5.3546 1.52983 5.48847 1.39597 5.65208 1.39597H9.81677C10.369 1.39597 10.8987 1.61536 11.2892 2.00587C11.6797 2.39639 11.8991 2.92604 11.8991 3.47831V7.04805C11.8991 7.12695 11.8678 7.20261 11.812 7.2584C11.7562 7.31419 11.6805 7.34553 11.6016 7.34553H11.0067C10.9278 7.34553 10.8521 7.31419 10.7963 7.2584C10.7405 7.20261 10.7092 7.12695 10.7092 7.04805V6.15561H1.18991V7.04805C1.18991 7.08711 1.18222 7.1258 1.16727 7.16189C1.15232 7.19798 1.13041 7.23077 1.10278 7.2584C1.07516 7.28602 1.04237 7.30793 1.00627 7.32288C0.970182 7.33783 0.931499 7.34553 0.892434 7.34553H0.297478C0.218582 7.34553 0.142917 7.31419 0.0871294 7.2584C0.0313415 7.20261 0 7.12695 0 7.04805V0.503533C0 0.33992 0.133865 0.206055 0.297478 0.206055ZM3.27226 0.801011C3.66674 0.801011 4.04506 0.957717 4.324 1.23666C4.60294 1.5156 4.75965 1.89392 4.75965 2.2884C4.75965 2.68288 4.60294 3.0612 4.324 3.34014C4.04506 3.61908 3.66674 3.77579 3.27226 3.77579C2.87778 3.77579 2.49945 3.61908 2.22051 3.34014C1.94157 3.0612 1.78487 2.68288 1.78487 2.2884C1.78487 1.89392 1.94157 1.5156 2.22051 1.23666C2.49945 0.957717 2.87778 0.801011 3.27226 0.801011Z" fill="#FF7800"/>
</svg>
