<svg width="72" height="72" viewBox="0 0 72 72" fill="none" xmlns="http://www.w3.org/2000/svg">
<path d="M41.557 2.65674H16.5497C15.0757 2.65674 13.6622 3.24225 12.6199 4.28448C11.5777 5.32671 10.9922 6.74027 10.9922 8.2142V63.783C10.9922 64.5128 11.1359 65.2354 11.4152 65.9096C11.6945 66.5838 12.1039 67.1964 12.62 67.7124C13.1361 68.2284 13.7487 68.6377 14.423 68.9169C15.0972 69.1961 15.8199 69.3398 16.5497 69.3396L55.4494 69.343C56.9231 69.3428 58.3364 68.7573 59.3786 67.7153C60.4207 66.6733 61.0064 65.2601 61.0069 63.7863V22.1083L41.557 2.65674ZM44.3353 13.2932L50.3696 19.3291H44.3353V13.2932ZM55.4494 63.783H16.5497V8.2142H38.7778V19.33C38.7783 20.8036 39.364 22.2167 40.4062 23.2586C41.4484 24.3005 42.8617 24.8858 44.3353 24.8858H55.4494V63.783Z" fill="#FF7800"/>
<path d="M33.2224 52.6714H49.8939V58.228H33.2224V52.6714ZM33.2224 41.5565H49.8939V47.1148H33.2224V41.5565ZM33.2224 30.4424H49.8939V35.9998H33.2224V30.4424ZM22.1074 52.6714H27.6649V58.228H22.1074V52.6714ZM22.1074 41.5565H27.6649V47.1148H22.1074V41.5565ZM22.1074 30.4424H27.6649V35.9998H22.1074V30.4424Z" fill="#FF7800"/>
</svg>
