<svg width="17" height="17" viewBox="0 0 17 17" fill="none" xmlns="http://www.w3.org/2000/svg">
<g clip-path="url(#clip0_495_1055)">
<path d="M7.60997 4.1697H16.09C16.3033 4.20526 16.4722 4.12526 16.5966 3.9297C16.7211 3.73414 16.7211 3.53859 16.5966 3.34303C16.4722 3.14748 16.3033 3.06748 16.09 3.10303H7.60997C7.46775 3.10303 7.3522 3.15637 7.26331 3.26303C7.17442 3.3697 7.12997 3.49414 7.12997 3.63637C7.12997 3.77859 7.17442 3.90303 7.26331 4.0097C7.3522 4.11637 7.46775 4.1697 7.60997 4.1697ZM1.15664 4.1697H2.22331C2.29442 4.38303 2.41886 4.57859 2.59664 4.75637L3.02331 5.1297C3.30775 5.4497 3.6722 5.6097 4.11664 5.6097C4.56109 5.6097 4.94331 5.4497 5.26331 5.1297L5.63664 4.75637C5.95664 4.43637 6.11664 4.06303 6.11664 3.63637C6.11664 3.2097 5.95664 2.83637 5.63664 2.51637L5.26331 2.14303C4.94331 1.82303 4.56109 1.66303 4.11664 1.66303C3.6722 1.66303 3.28997 1.82303 2.96997 2.14303L2.64997 2.51637C2.4722 2.69414 2.34775 2.8897 2.27664 3.10303H1.15664C0.943307 3.06748 0.774418 3.14748 0.649974 3.34303C0.52553 3.53859 0.52553 3.73414 0.649974 3.9297C0.774418 4.12526 0.943307 4.20526 1.15664 4.1697ZM3.34331 3.26303L3.71664 2.8897C3.82331 2.78303 3.95664 2.7297 4.11664 2.7297C4.27664 2.7297 4.3922 2.78303 4.46331 2.8897L4.88997 3.26303C4.99664 3.3697 5.04997 3.49414 5.04997 3.63637C5.04997 3.77859 4.99664 3.90303 4.88997 4.0097L4.51664 4.38303C4.40997 4.4897 4.27664 4.54303 4.11664 4.54303C3.95664 4.54303 3.82331 4.4897 3.71664 4.38303L3.34331 4.0097C3.23664 3.90303 3.18331 3.77859 3.18331 3.63637C3.18331 3.49414 3.23664 3.3697 3.34331 3.26303ZM16.09 8.43637H12.1433C11.8944 8.40081 11.7166 8.48081 11.61 8.67637C11.5033 8.87192 11.5033 9.06748 11.61 9.26303C11.7166 9.45859 11.8944 9.53859 12.1433 9.50303H16.1433C16.25 9.50303 16.3566 9.4497 16.4633 9.34303C16.57 9.23637 16.6233 9.11192 16.6233 8.9697C16.6233 8.82748 16.57 8.70303 16.4633 8.59637C16.3566 8.4897 16.25 8.43637 16.1433 8.43637H16.09ZM1.15664 9.50303H6.75664C6.82775 9.71637 6.9522 9.91192 7.12997 10.0897L7.50331 10.463C7.82331 10.783 8.19664 10.943 8.62331 10.943C9.04997 10.943 9.42331 10.783 9.74331 10.463L10.1166 10.0897C10.4366 9.7697 10.5966 9.39637 10.5966 8.9697C10.5966 8.54303 10.4366 8.1697 10.1166 7.8497L9.74331 7.47637C9.42331 7.15637 9.04997 6.99637 8.62331 6.99637C8.19664 6.99637 7.82331 7.15637 7.50331 7.47637L7.12997 7.8497C6.9522 8.02748 6.82775 8.22303 6.75664 8.43637H1.15664C1.01442 8.47192 0.898863 8.53414 0.809974 8.62303C0.721085 8.71192 0.676641 8.82748 0.676641 8.9697C0.676641 9.11192 0.721085 9.23637 0.809974 9.34303C0.898863 9.4497 1.01442 9.50303 1.15664 9.50303ZM7.87664 8.59637L8.24997 8.22303C8.35664 8.11637 8.48109 8.06303 8.62331 8.06303C8.76553 8.06303 8.88997 8.11637 8.99664 8.22303L9.36997 8.59637C9.47664 8.70303 9.52997 8.82748 9.52997 8.9697C9.52997 9.11192 9.47664 9.23637 9.36997 9.34303L8.99664 9.71637C8.88997 9.82303 8.76553 9.87637 8.62331 9.87637C8.48109 9.87637 8.35664 9.82303 8.24997 9.71637L7.87664 9.34303C7.76997 9.23637 7.71664 9.11192 7.71664 8.9697C7.71664 8.82748 7.76997 8.70303 7.87664 8.59637ZM14.2766 12.8097C13.9566 12.4897 13.5744 12.3297 13.13 12.3297C12.6855 12.3297 12.3033 12.4897 11.9833 12.8097L11.61 13.183C11.4322 13.3608 11.3078 13.5564 11.2366 13.7697H1.15664C0.943307 13.7341 0.774418 13.8141 0.649974 14.0097C0.52553 14.2053 0.52553 14.4008 0.649974 14.5964C0.774418 14.7919 0.943307 14.8719 1.15664 14.8364H11.2366C11.3433 15.0497 11.4678 15.2453 11.61 15.423L11.9833 15.7964C12.3033 16.1164 12.6855 16.2764 13.13 16.2764C13.5744 16.2764 13.9566 16.1164 14.2766 15.7964L14.65 15.423C14.97 15.103 15.13 14.7297 15.13 14.303C15.13 13.8764 14.97 13.503 14.65 13.183L14.2766 12.8097ZM13.9033 14.6764L13.53 15.0497C13.4233 15.1564 13.2989 15.2097 13.1566 15.2097C13.0144 15.2097 12.89 15.1564 12.7833 15.0497L12.41 14.6764C12.3033 14.5697 12.25 14.4453 12.25 14.303C12.25 14.1608 12.3033 14.0364 12.41 13.9297L12.7833 13.5564C12.89 13.4497 13.0144 13.3964 13.1566 13.3964C13.2989 13.3964 13.4233 13.4497 13.53 13.5564L13.9033 13.9297C14.01 14.0364 14.0633 14.1608 14.0633 14.303C14.0633 14.4453 14.01 14.5697 13.9033 14.6764ZM16.09 14.8364C15.9122 14.8364 15.77 14.7564 15.6633 14.5964C15.5566 14.4364 15.5389 14.2675 15.61 14.0897C15.61 14.0186 15.6455 13.9653 15.7166 13.9297C15.8589 13.7519 16.0455 13.7075 16.2766 13.7964C16.5078 13.8853 16.6233 14.0541 16.6233 14.303C16.6233 14.4453 16.57 14.5697 16.4633 14.6764C16.3566 14.783 16.2322 14.8364 16.09 14.8364Z" fill="#00009F"/>
</g>
<defs>
<clipPath id="clip0_495_1055">
<rect width="16" height="16" fill="white" transform="matrix(1 0 0 -1 0.556641 16.9697)"/>
</clipPath>
</defs>
</svg>
