<svg width="235" height="55" viewBox="0 0 235 55" fill="none" xmlns="http://www.w3.org/2000/svg">
<g clip-path="url(#clip0_538_7366)">
<path d="M64.6565 20.4616C66.606 20.4616 67.6381 19.894 67.6381 18.3046C67.6381 16.7152 66.3766 16.7152 65.0005 16.6017C61.6749 16.4882 59.4961 15.4664 59.4961 12.0606C59.4961 8.88186 61.4456 7.06543 65.5739 7.06543C67.0647 7.06543 68.6702 7.29248 70.0463 7.74659L70.2756 10.8118C68.6702 10.3577 66.95 10.0171 65.8033 10.0171C63.7391 10.0171 62.9364 10.5848 62.9364 12.0606C62.9364 13.65 64.3125 13.7635 65.8033 13.7635C69.1289 13.877 71.193 15.1258 71.193 18.4181C71.193 21.5969 69.4729 23.4133 64.8859 23.4133C63.1657 23.4133 61.3309 23.1863 59.9548 22.6186L59.7254 19.6669C61.2162 20.121 62.8217 20.4616 64.6565 20.4616Z" fill="white"/>
<path d="M73.3711 17.3966C73.3711 13.3096 75.6646 11.2661 79.2196 11.2661C82.7745 11.2661 85.068 13.3096 85.068 17.3966C85.068 21.4835 82.7745 23.527 79.2196 23.527C75.6646 23.527 73.3711 21.4835 73.3711 17.3966ZM81.6278 17.3966C81.6278 14.6719 80.7104 13.7637 79.1049 13.7637C77.6141 13.7637 76.582 14.6719 76.582 17.3966C76.582 20.1212 77.4994 21.0294 79.1049 21.0294C80.7104 21.0294 81.6278 20.1212 81.6278 17.3966Z" fill="white"/>
<path d="M104.907 15.9207V23.0729H101.696V16.0342C101.696 14.6719 101.123 13.7637 99.7466 13.7637C99.1732 13.7637 98.5999 13.8772 97.9118 14.3313C98.0265 14.899 98.0265 15.3531 98.0265 16.0342V23.0729H94.8156V16.0342C94.8156 14.5584 94.2422 13.7637 92.7514 13.7637C92.178 13.7637 91.4899 13.8772 91.0312 14.2178V23.0729H87.8203V11.6067L89.4258 12.0608C90.5725 11.6067 91.834 11.3796 92.9807 11.3796C94.3568 11.3796 95.5036 11.6067 96.3063 12.2879C97.4531 11.7202 98.5999 11.3796 99.976 11.3796C103.302 11.3796 104.907 12.742 104.907 15.9207Z" fill="white"/>
<path d="M119.701 17.3964C119.701 21.9375 117.407 23.5269 113.623 23.5269C111.788 23.5269 109.839 23.1863 108.577 22.8457V5.93018L111.788 5.5896V11.8336C112.591 11.6065 113.508 11.3795 114.655 11.3795C117.637 11.3795 119.701 12.8553 119.701 17.3964ZM116.375 17.3964C116.375 14.6718 115.687 13.8771 114.082 13.8771C113.279 13.8771 112.476 14.1041 111.788 14.4447V20.9157C112.476 21.0293 113.05 21.0293 113.508 21.0293C115.458 21.0293 116.375 20.3481 116.375 17.3964Z" fill="white"/>
<path d="M133.003 11.4932V22.7323C131.283 23.1864 129.333 23.527 127.728 23.527C123.944 23.527 122.797 21.7106 122.797 18.9859V11.8337L126.008 11.4932V18.5318C126.008 19.7806 126.237 20.9159 128.187 20.9159C128.76 20.9159 129.448 20.8024 129.907 20.6888V11.8337L133.003 11.4932Z" fill="white"/>
<path d="M147.109 11.6067L143.21 23.4135C142.177 26.7058 141.375 28.1816 138.278 28.1816C137.59 28.1816 136.444 28.0681 135.641 27.841L135.297 25.1164C136.214 25.457 137.132 25.684 137.82 25.684C139.196 25.684 139.655 25.3435 140.343 23.1864H139.081L135.297 11.6067H138.508L141.145 20.2347L143.898 11.6067H147.109Z" fill="white"/>
<path d="M158.691 15.2396V22.6188C157.314 23.0729 155.48 23.4135 153.759 23.4135C150.319 23.4135 148.484 22.2782 148.484 19.5536C148.484 16.6019 150.549 16.0342 153.071 15.9207L155.48 15.8072V15.2396C155.48 14.3313 155.136 13.6502 153.301 13.6502C151.925 13.6502 150.434 13.8772 149.402 14.2178L149.631 11.7202C150.893 11.3796 152.269 11.1526 153.415 11.1526C157.658 11.2661 158.691 12.969 158.691 15.2396ZM153.759 21.0294C154.448 21.0294 155.021 20.9159 155.48 20.8024V18.0777L153.415 18.1913C152.039 18.3048 151.581 18.6454 151.581 19.5536C151.581 20.5753 152.383 21.0294 153.759 21.0294Z" fill="white"/>
<path d="M172.681 15.8072V23.1864H169.47V16.3748C169.47 14.6719 168.896 13.8772 167.406 13.8772C166.603 13.8772 165.915 14.1043 165.456 14.4449V23.1864H162.245V11.6067L163.851 12.0608C165.112 11.6067 166.373 11.3796 167.52 11.3796C171.534 11.3796 172.681 13.0825 172.681 15.8072Z" fill="white"/>
<path d="M186.786 5.5896V22.7322C185.525 23.0728 183.461 23.5269 181.741 23.5269C178.3 23.5269 175.777 22.1645 175.777 17.5099C175.777 12.9689 178.3 11.2659 181.167 11.2659C182.199 11.2659 183.002 11.3795 183.69 11.493V5.81665L186.786 5.5896ZM181.741 21.0293C182.314 21.0293 182.887 21.0293 183.575 20.8022V14.1041C182.887 13.8771 182.429 13.7635 181.626 13.7635C180.02 13.7635 179.103 14.7853 179.103 17.5099C179.103 20.2346 180.25 21.0293 181.741 21.0293Z" fill="white"/>
<path d="M195.501 13.9908C194.813 13.9908 194.239 14.1043 193.666 14.3313V23.1864H190.455V11.6067L192.061 12.0608C193.322 11.6067 194.698 11.3796 195.615 11.3796C196.189 11.3796 196.648 11.3796 197.106 11.4932L197.336 14.2178C197.106 14.1043 196.418 13.9908 195.501 13.9908Z" fill="white"/>
<path d="M209.95 18.4183H202.382C202.726 20.3483 203.873 21.0294 205.937 21.0294C207.313 21.0294 208.574 20.8024 209.492 20.4618L209.377 22.9594C208.23 23.3 206.969 23.6406 205.593 23.6406C201.579 23.6406 199.171 21.9376 199.171 17.6236C199.171 13.5367 201.464 11.3796 204.905 11.3796C208.46 11.3796 210.18 13.6502 210.18 17.1695C210.065 17.7371 210.065 18.1913 209.95 18.4183ZM202.382 16.2613H206.969C206.969 14.6719 206.281 13.6502 204.79 13.6502C203.414 13.6502 202.611 14.5584 202.382 16.2613Z" fill="white"/>
<path d="M223.597 15.8072V23.1864H220.386V16.3748C220.386 14.6719 219.812 13.8772 218.322 13.8772C217.519 13.8772 216.831 14.1043 216.372 14.4449V23.1864H213.161V11.6067L214.767 12.0608C216.028 11.6067 217.289 11.3796 218.436 11.3796C222.45 11.3796 223.597 13.0825 223.597 15.8072Z" fill="white"/>
<path d="M234.835 20.5754L234.72 23.073C233.688 23.4135 232.771 23.5271 231.853 23.5271C229.216 23.5271 227.954 22.3918 227.954 19.6671V14.2179H225.775L226.119 11.7203H227.954V8.76856L231.165 8.42798V11.7203H234.605L234.261 14.2179H231.165V19.4401C231.165 20.5754 231.509 21.0295 232.656 21.0295C233.229 21.0295 234.032 20.9159 234.835 20.5754Z" fill="white"/>
<path d="M70.1604 33.0633C70.1604 36.3556 67.8669 38.172 64.656 38.172H61.445V44.416H59.3809V28.1816H64.656C67.9816 28.1816 70.1604 29.771 70.1604 33.0633ZM68.0962 33.0633C68.0962 30.7928 66.8348 29.9981 64.5413 29.9981H61.445V36.3556H64.5413C66.8348 36.3556 68.0962 35.3338 68.0962 33.0633Z" fill="white"/>
<path d="M78.6466 34.312C77.8439 34.312 76.8118 34.5391 76.0091 34.8797V44.3024H74.0596V32.7227L75.4357 33.1768C76.5824 32.7227 77.6145 32.4956 78.7613 32.4956C79.22 32.4956 79.7934 32.4956 80.1374 32.6091L80.3667 34.4256C79.908 34.312 79.3347 34.312 78.6466 34.312Z" fill="white"/>
<path d="M82.8896 38.6261C82.8896 34.5391 85.0685 32.4956 88.2794 32.4956C91.4903 32.4956 93.6692 34.5391 93.6692 38.6261C93.6692 42.713 91.4903 44.643 88.2794 44.643C85.0685 44.643 82.8896 42.713 82.8896 38.6261ZM91.4903 38.6261C91.4903 35.6744 90.3436 34.1985 88.1647 34.1985C85.9859 34.1985 84.8391 35.6744 84.8391 38.6261C84.8391 41.5778 85.9859 42.9401 88.1647 42.9401C90.3436 42.9401 91.4903 41.5778 91.4903 38.6261Z" fill="white"/>
<path d="M108.004 38.399C108.004 42.713 105.825 44.643 102.843 44.643C101.696 44.643 100.664 44.4159 99.8616 44.0754V49.1841H97.9121V32.7227L99.1735 33.1768C100.206 32.8362 101.467 32.4956 102.614 32.4956C105.825 32.4956 108.004 34.312 108.004 38.399ZM105.939 38.399C105.939 35.3338 104.793 34.1985 102.728 34.1985C101.696 34.1985 100.664 34.4256 99.8616 34.7661V42.2589C100.55 42.5995 101.582 42.9401 102.499 42.9401C104.678 42.9401 105.939 41.5778 105.939 38.399Z" fill="white"/>
<path d="M121.421 39.1937H113.508C113.623 41.9183 114.999 42.9401 117.407 42.9401C118.669 42.9401 119.701 42.713 120.962 42.2589L120.847 43.9618C119.701 44.4159 118.554 44.5295 117.292 44.5295C113.623 44.5295 111.559 42.8266 111.559 38.6261C111.559 34.5391 113.852 32.3821 116.719 32.3821C119.93 32.3821 121.535 34.4256 121.535 38.0584C121.535 38.6261 121.421 38.9666 121.421 39.1937ZM113.508 37.7178H119.586C119.586 35.4473 118.669 34.1985 116.719 34.1985C114.884 34.085 113.737 35.4473 113.508 37.7178Z" fill="white"/>
<path d="M130.365 34.312C129.563 34.312 128.531 34.5391 127.728 34.8797V44.3024H125.778V32.7227L127.154 33.1768C128.301 32.7227 129.333 32.4956 130.48 32.4956C130.939 32.4956 131.512 32.4956 131.856 32.6091L132.085 34.4256C131.627 34.312 131.053 34.312 130.365 34.312Z" fill="white"/>
<path d="M142.292 42.3725V44.0754C141.26 44.416 140.457 44.643 139.654 44.643C137.705 44.643 136.443 43.7348 136.443 41.0102V34.4256H134.265L134.494 32.8362H136.443V29.6575L138.393 29.4304V32.8362H142.063L141.833 34.4256H138.393V40.8966C138.393 42.1454 138.737 42.8266 139.998 42.8266C140.572 42.9401 141.26 42.8266 142.292 42.3725Z" fill="white"/>
<path d="M155.135 32.8362L150.777 45.0971C149.745 48.1623 148.828 49.4111 146.419 49.4111C145.846 49.4111 145.043 49.2976 144.355 49.0705L144.126 47.2541C144.929 47.5947 145.731 47.7082 146.305 47.7082C147.566 47.7082 148.254 47.2541 149.057 44.7565L149.172 44.3024H148.484L144.585 32.8362H146.649L149.745 42.5995L153.071 32.8362H155.135Z" fill="white"/>
<path d="M167.635 29.9981V35.5609H174.745L174.516 37.2638H167.635V44.3025H165.571V28.1816H175.204L174.975 29.9981H167.635Z" fill="white"/>
<path d="M178.988 26.7058H181.167V28.7493H178.988V26.7058ZM181.052 44.3025H179.103V32.9498L181.052 32.7227V44.3025Z" fill="white"/>
<path d="M195.616 36.8096V44.3024H193.667V37.0367C193.667 35.1067 192.864 34.1985 190.915 34.1985C189.997 34.1985 188.965 34.4256 188.162 34.8797V44.4159H186.213V32.7227L187.589 33.1768C188.736 32.7227 189.883 32.4956 191.029 32.4956C194.24 32.4956 195.616 34.1985 195.616 36.8096Z" fill="white"/>
<path d="M209.836 26.5923V43.9619C208.574 44.189 206.969 44.5295 205.593 44.5295C202.152 44.5295 199.744 42.9402 199.744 38.6261C199.744 34.3121 202.038 32.3822 205.134 32.3822C206.166 32.3822 207.083 32.4957 207.886 32.7227V26.7058L209.836 26.5923ZM207.886 42.7131V34.6527C207.083 34.3121 206.281 34.0851 205.363 34.0851C203.184 34.0851 201.808 35.5609 201.808 38.6261C201.808 41.6914 203.184 42.8266 205.593 42.8266C206.166 42.9402 207.083 42.8266 207.886 42.7131Z" fill="white"/>
<path d="M224.171 39.1937H216.258C216.373 41.9183 217.749 42.9401 220.157 42.9401C221.419 42.9401 222.451 42.713 223.712 42.2589L223.597 43.9618C222.451 44.4159 221.304 44.5295 220.042 44.5295C216.373 44.5295 214.309 42.8266 214.309 38.6261C214.309 34.5391 216.602 32.3821 219.469 32.3821C222.68 32.3821 224.285 34.4256 224.285 38.0584C224.171 38.6261 224.171 38.9666 224.171 39.1937ZM216.258 37.7178H222.336C222.336 35.4473 221.419 34.1985 219.469 34.1985C217.634 34.085 216.487 35.4473 216.258 37.7178Z" fill="white"/>
<path d="M233 34.312C232.197 34.312 231.165 34.5391 230.363 34.8797V44.3024H228.413V32.7227L229.789 33.1768C230.936 32.7227 231.968 32.4956 233.115 32.4956C233.573 32.4956 234.147 32.4956 234.491 32.6091L234.72 34.4256C234.376 34.312 233.688 34.312 233 34.312Z" fill="white"/>
<path d="M44.7029 39.9884L34.2674 29.6575C34.038 29.4304 33.9233 28.9763 34.1527 28.7493C35.1848 26.9328 35.7581 24.7758 35.7581 22.5053C35.6435 15.8072 30.0243 10.3579 23.2585 10.3579C16.3779 10.2444 10.7588 15.8072 10.7588 22.6188C10.7588 29.3169 16.2632 34.8797 23.0291 34.9933C25.3226 34.9933 27.3868 34.4256 29.3363 33.4039C29.6803 33.2904 30.0243 33.2904 30.2537 33.5174L40.6892 43.8484C41.3773 44.5295 42.524 44.5295 43.3268 43.8484L44.8175 42.3725C45.3909 41.8049 45.3909 40.6696 44.7029 39.9884ZM29.2216 27.387H24.8639V24.6623C24.8639 24.3217 24.6346 23.8676 24.4052 23.6406L23.0291 22.5053L21.653 23.6406C21.309 23.8676 21.1943 24.2082 21.1943 24.6623V27.387H16.8366V20.8024C16.8366 20.6889 16.9513 20.4618 17.066 20.3483L22.6851 16.1478C22.9144 16.0343 23.1438 16.0343 23.2585 16.1478L28.9923 20.3483C29.1069 20.4618 29.2216 20.5753 29.2216 20.8024V27.387Z" fill="white"/>
<path d="M30.3679 37.0367C27.845 38.2855 25.0928 38.8531 21.9966 38.626C13.9693 38.0584 7.43273 31.5874 6.97403 23.6405C6.40065 13.9907 14.428 5.93027 24.1754 6.61143C32.2027 7.06554 38.7393 13.5366 39.3126 21.4835C39.542 24.4352 38.8539 27.2733 37.7072 29.7709L42.6382 34.6526C42.8676 34.312 42.9823 34.085 43.097 33.8579C45.1611 30.3386 46.1932 26.1381 45.9638 21.7105C45.6198 10.0172 35.987 0.594504 24.1754 0.140396C11.1024 -0.313712 0.4375 10.0172 0.4375 22.7323C0.4375 26.7057 1.46958 30.5656 3.41907 33.8579C5.71259 38.2855 20.3911 52.2493 23.0287 54.6333C23.258 54.8604 23.602 54.8604 23.7167 54.6333C25.2075 53.1575 30.9413 47.4811 35.8724 42.3724L30.3679 37.0367Z" fill="white"/>
</g>
<defs>
<clipPath id="clip0_538_7366">
<rect width="234.398" height="54.72" fill="white" transform="translate(0.4375 0.140381)"/>
</clipPath>
</defs>
</svg>
