<svg width="24" height="20" viewBox="0 0 24 20" fill="none" xmlns="http://www.w3.org/2000/svg">
<path d="M19.1036 1.68742C18.7719 1.355 18.3307 1.17188 17.8613 1.17188H17.0822V1.95312C17.0822 2.81469 16.3821 3.51562 15.5214 3.51562H8.49801C7.63738 3.51562 6.93723 2.81469 6.93723 1.95312V1.17188H6.15555C5.18844 1.17188 4.40078 1.95953 4.39969 2.92773L4.38281 18.2402C4.38227 18.7101 4.56469 19.152 4.89637 19.4845C5.22813 19.8169 5.6693 20 6.13867 20H17.8444C18.8115 20 19.5992 19.2123 19.6003 18.2441L19.6172 2.93164C19.6177 2.46176 19.4353 2.01988 19.1036 1.68742ZM12.199 7.03125H16.3573C16.6805 7.03125 16.9426 7.29359 16.9426 7.61719C16.9426 7.94078 16.6805 8.20312 16.3573 8.20312H12.199C11.8757 8.20312 11.6137 7.94078 11.6137 7.61719C11.6137 7.29359 11.8757 7.03125 12.199 7.03125ZM12.199 10.9375H16.3573C16.6805 10.9375 16.9426 11.1998 16.9426 11.5234C16.9426 11.847 16.6805 12.1094 16.3573 12.1094H12.199C11.8757 12.1094 11.6137 11.847 11.6137 11.5234C11.6137 11.1998 11.8757 10.9375 12.199 10.9375ZM12.199 14.8438H16.374C16.6973 14.8438 16.9593 15.1061 16.9593 15.4297C16.9593 15.7533 16.6973 16.0156 16.374 16.0156H12.199C11.8757 16.0156 11.6137 15.7533 11.6137 15.4297C11.6137 15.1061 11.8757 14.8438 12.199 14.8438ZM7.21215 7.05437C7.44074 6.82555 7.81129 6.82555 8.03988 7.05437L8.35813 7.37301L9.70789 6.02176C9.93649 5.79297 10.307 5.79289 10.5356 6.02176C10.7641 6.25055 10.7641 6.62156 10.5356 6.85039L8.77195 8.61594C8.71763 8.67034 8.65312 8.7135 8.58211 8.74295C8.51109 8.7724 8.43497 8.78755 8.35809 8.78755C8.28121 8.78755 8.20508 8.7724 8.13407 8.74295C8.06305 8.7135 7.99854 8.67034 7.94422 8.61594L7.21211 7.88297C6.98356 7.65418 6.98356 7.28316 7.21215 7.05437ZM7.21215 11.2589C7.44074 11.0301 7.81129 11.0301 8.03988 11.2589L8.35813 11.5775L9.70789 10.2263C9.93645 9.9975 10.307 9.9975 10.5356 10.2263C10.7641 10.4551 10.7641 10.8261 10.5356 11.0549L8.77195 12.8205C8.71763 12.8749 8.65312 12.9181 8.5821 12.9475C8.51109 12.9769 8.43496 12.9921 8.35809 12.9921C8.28121 12.9921 8.20509 12.9769 8.13407 12.9475C8.06306 12.9181 7.99854 12.8749 7.94422 12.8205L7.21211 12.0875C6.98356 11.8588 6.98356 11.4878 7.21215 11.2589ZM7.21215 15.1652C7.44074 14.9364 7.81129 14.9364 8.03988 15.1652L8.35813 15.4838L9.70789 14.1325C9.93645 13.9038 10.307 13.9038 10.5356 14.1325C10.7641 14.3613 10.7641 14.7323 10.5356 14.9612L8.77195 16.7268C8.71763 16.7812 8.65312 16.8243 8.5821 16.8537C8.51109 16.8832 8.43496 16.8983 8.35809 16.8983C8.28121 16.8983 8.20509 16.8832 8.13407 16.8537C8.06306 16.8243 7.99854 16.7812 7.94422 16.7268L7.21211 15.9938C6.98356 15.765 6.98356 15.394 7.21215 15.1652Z" fill="#00009F"/>
<path d="M8.1084 1.95312C8.1084 2.16887 8.28309 2.34375 8.49859 2.34375H15.522C15.7375 2.34375 15.9122 2.16887 15.9122 1.95312V0.390625C15.9122 0.174883 15.7375 0 15.522 0H8.49859C8.28309 0 8.1084 0.174883 8.1084 0.390625V1.95312Z" fill="#00009F"/>
</svg>
