<svg width="172" height="40" viewBox="0 0 172 40" fill="none" xmlns="http://www.w3.org/2000/svg">
<path d="M47.3806 14.8545C48.8057 14.8545 49.5601 14.4396 49.5601 13.2778C49.5601 12.116 48.638 12.116 47.6321 12.033C45.2011 11.95 43.6084 11.2031 43.6084 8.71346C43.6084 6.38981 45.0335 5.06201 48.0513 5.06201C49.141 5.06201 50.3146 5.22799 51.3205 5.55994L51.4882 7.8006C50.3146 7.46865 49.0572 7.21969 48.2189 7.21969C46.71 7.21969 46.1232 7.63463 46.1232 8.71346C46.1232 9.87529 47.1292 9.95828 48.2189 9.95828C50.6499 10.0413 52.1588 10.9541 52.1588 13.3608C52.1588 15.6844 50.9014 17.0122 47.5483 17.0122C46.2909 17.0122 44.9496 16.8462 43.9437 16.4313L43.7761 14.2736C44.8658 14.6056 46.0394 14.8545 47.3806 14.8545Z" fill="#FF7800"/>
<path d="M53.752 12.6141C53.752 9.62659 55.4285 8.13281 58.0272 8.13281C60.6258 8.13281 62.3024 9.62659 62.3024 12.6141C62.3024 15.6017 60.6258 17.0955 58.0272 17.0955C55.4285 17.0955 53.752 15.6017 53.752 12.6141ZM59.7875 12.6141C59.7875 10.6224 59.1169 9.95854 57.9433 9.95854C56.8536 9.95854 56.0991 10.6224 56.0991 12.6141C56.0991 14.6058 56.7697 15.2697 57.9433 15.2697C59.1169 15.2697 59.7875 14.6058 59.7875 12.6141Z" fill="#FF7800"/>
<path d="M76.8047 11.5348V16.7631H74.4576V11.6178C74.4576 10.622 74.0384 9.95807 73.0325 9.95807C72.6134 9.95807 72.1942 10.0411 71.6913 10.373C71.7751 10.7879 71.7751 11.1199 71.7751 11.6178V16.7631H69.4279V11.6178C69.4279 10.539 69.0088 9.95807 67.919 9.95807C67.4999 9.95807 66.9969 10.0411 66.6616 10.29V16.7631H64.3145V8.38131L65.488 8.71326C66.3263 8.38131 67.2484 8.21533 68.0867 8.21533C69.0926 8.21533 69.9309 8.38131 70.5177 8.87923C71.356 8.46429 72.1942 8.21533 73.2002 8.21533C75.6312 8.21533 76.8047 9.21118 76.8047 11.5348Z" fill="#FF7800"/>
<path d="M87.6176 12.6141C87.6176 15.9336 85.941 17.0954 83.1747 17.0954C81.8335 17.0954 80.4084 16.8465 79.4863 16.5975V4.23236L81.8335 3.9834V8.54771C82.4203 8.38174 83.0909 8.21576 83.9292 8.21576C86.1087 8.21576 87.6176 9.2946 87.6176 12.6141ZM85.1866 12.6141C85.1866 10.6224 84.6836 10.0415 83.51 10.0415C82.9232 10.0415 82.3365 10.2075 81.8335 10.4564V15.1867C82.3365 15.2697 82.7556 15.2697 83.0909 15.2697C84.516 15.2697 85.1866 14.7718 85.1866 12.6141Z" fill="#FF7800"/>
<path d="M97.3425 8.29834V16.5141C96.0851 16.8461 94.66 17.095 93.4864 17.095C90.7201 17.095 89.8818 15.7672 89.8818 13.7755V8.5473L92.229 8.29834V13.4436C92.229 14.3564 92.3967 15.1863 93.8217 15.1863C94.2409 15.1863 94.7438 15.1033 95.0791 15.0203V8.5473L97.3425 8.29834Z" fill="#FF7800"/>
<path d="M107.653 8.38135L104.803 17.0121C104.048 19.4187 103.461 20.4975 101.198 20.4975C100.695 20.4975 99.8568 20.4145 99.27 20.2486L99.0186 18.2569C99.6892 18.5058 100.36 18.6718 100.863 18.6718C101.869 18.6718 102.204 18.4228 102.707 16.8461H101.785L99.0186 8.38135H101.366L103.294 14.6884L105.306 8.38135H107.653Z" fill="#FF7800"/>
<path d="M116.12 11.0374V16.4315C115.114 16.7635 113.773 17.0125 112.515 17.0125C110 17.0125 108.659 16.1826 108.659 14.1909C108.659 12.0332 110.168 11.6183 112.012 11.5353L113.773 11.4523V11.0374C113.773 10.3735 113.521 9.87553 112.18 9.87553C111.174 9.87553 110.084 10.0415 109.33 10.2905L109.497 8.46474C110.42 8.21578 111.425 8.0498 112.264 8.0498C115.365 8.13279 116.12 9.37761 116.12 11.0374ZM112.515 15.2697C113.018 15.2697 113.437 15.1867 113.773 15.1037V13.112L112.264 13.195C111.258 13.278 110.923 13.527 110.923 14.1909C110.923 14.9378 111.509 15.2697 112.515 15.2697Z" fill="#FF7800"/>
<path d="M126.346 11.4518V16.846H123.999V11.8668C123.999 10.622 123.58 10.0411 122.49 10.0411C121.903 10.0411 121.4 10.207 121.065 10.456V16.846H118.718V8.38131L119.891 8.71326C120.813 8.38131 121.736 8.21533 122.574 8.21533C125.508 8.21533 126.346 9.46015 126.346 11.4518Z" fill="#FF7800"/>
<path d="M136.657 3.9834V16.5145C135.735 16.7635 134.226 17.0954 132.968 17.0954C130.454 17.0954 128.609 16.0996 128.609 12.6971C128.609 9.37759 130.454 8.13278 132.549 8.13278C133.304 8.13278 133.891 8.21576 134.393 8.29875V4.14937L136.657 3.9834ZM132.968 15.2697C133.388 15.2697 133.807 15.2697 134.31 15.1037V10.2075C133.807 10.0415 133.471 9.9585 132.885 9.9585C131.711 9.9585 131.04 10.7054 131.04 12.6971C131.04 14.6888 131.879 15.2697 132.968 15.2697Z" fill="#FF7800"/>
<path d="M143.028 10.124C142.525 10.124 142.106 10.207 141.687 10.373V16.846H139.34V8.38131L140.513 8.71326C141.436 8.38131 142.441 8.21533 143.112 8.21533C143.531 8.21533 143.867 8.21533 144.202 8.29832L144.369 10.29C144.202 10.207 143.699 10.124 143.028 10.124Z" fill="#FF7800"/>
<path d="M153.591 13.3606H148.058C148.31 14.7713 149.148 15.2693 150.657 15.2693C151.663 15.2693 152.585 15.1033 153.255 14.8543L153.172 16.6801C152.333 16.929 151.411 17.178 150.405 17.178C147.471 17.178 145.711 15.9332 145.711 12.7796C145.711 9.7921 147.387 8.21533 149.902 8.21533C152.501 8.21533 153.758 9.87508 153.758 12.4477C153.675 12.8626 153.675 13.1946 153.591 13.3606ZM148.058 11.7838H151.411C151.411 10.622 150.908 9.87508 149.818 9.87508C148.813 9.87508 148.226 10.539 148.058 11.7838Z" fill="#FF7800"/>
<path d="M163.566 11.4518V16.846H161.219V11.8668C161.219 10.622 160.799 10.0411 159.71 10.0411C159.123 10.0411 158.62 10.207 158.285 10.456V16.846H155.938V8.38131L157.111 8.71326C158.033 8.38131 158.955 8.21533 159.794 8.21533C162.728 8.21533 163.566 9.46015 163.566 11.4518Z" fill="#FF7800"/>
<path d="M171.781 14.9378L171.697 16.7635C170.942 17.0125 170.272 17.0955 169.601 17.0955C167.673 17.0955 166.751 16.2656 166.751 14.2739V10.2905H165.158L165.41 8.46474H166.751V6.30707L169.098 6.05811V8.46474H171.613L171.361 10.2905H169.098V14.1079C169.098 14.9378 169.35 15.2697 170.188 15.2697C170.607 15.2697 171.194 15.1867 171.781 14.9378Z" fill="#FF7800"/>
<path d="M51.4042 24.066C51.4042 26.4727 49.7276 27.8005 47.3805 27.8005H45.0333V32.3648H43.5244V20.4976H47.3805C49.8115 20.4976 51.4042 21.6594 51.4042 24.066ZM49.8953 24.066C49.8953 22.4063 48.9732 21.8254 47.2966 21.8254H45.0333V26.4727H47.2966C48.9732 26.4727 49.8953 25.7258 49.8953 24.066Z" fill="#00009F"/>
<path d="M57.608 24.9792C57.0212 24.9792 56.2667 25.1451 55.68 25.3941V32.2821H54.2549V23.8173L55.2608 24.1493C56.0991 23.8173 56.8535 23.6514 57.6918 23.6514C58.0271 23.6514 58.4463 23.6514 58.6977 23.7344L58.8654 25.0622C58.5301 24.9792 58.1109 24.9792 57.608 24.9792Z" fill="#00009F"/>
<path d="M60.709 28.1327C60.709 25.1451 62.3017 23.6514 64.6489 23.6514C66.996 23.6514 68.5888 25.1451 68.5888 28.1327C68.5888 31.1202 66.996 32.531 64.6489 32.531C62.3017 32.531 60.709 31.1202 60.709 28.1327ZM66.996 28.1327C66.996 25.975 66.1578 24.8962 64.565 24.8962C62.9723 24.8962 62.134 25.975 62.134 28.1327C62.134 30.2904 62.9723 31.2862 64.565 31.2862C66.1578 31.2862 66.996 30.2904 66.996 28.1327Z" fill="#00009F"/>
<path d="M79.0672 27.9667C79.0672 31.1202 77.4745 32.531 75.295 32.531C74.4567 32.531 73.7023 32.3651 73.1155 32.1161V35.8505H71.6904V23.8173L72.6125 24.1493C73.367 23.9003 74.2891 23.6514 75.1274 23.6514C77.4745 23.6514 79.0672 24.9792 79.0672 27.9667ZM77.5584 27.9667C77.5584 25.7261 76.7201 24.8962 75.2112 24.8962C74.4567 24.8962 73.7023 25.0622 73.1155 25.3111V30.7883C73.6185 31.0373 74.3729 31.2862 75.0435 31.2862C76.6362 31.2862 77.5584 30.2904 77.5584 27.9667Z" fill="#00009F"/>
<path d="M88.8752 28.5476H83.0911C83.1749 30.5393 84.1808 31.2862 85.9412 31.2862C86.8633 31.2862 87.6178 31.1202 88.5399 30.7883L88.456 32.0331C87.6178 32.365 86.7795 32.448 85.8574 32.448C83.1749 32.448 81.666 31.2032 81.666 28.1327C81.666 25.1451 83.3426 23.5684 85.4383 23.5684C87.7854 23.5684 88.959 25.0621 88.959 27.7177C88.959 28.1327 88.8752 28.3816 88.8752 28.5476ZM83.0911 27.4688H87.5339C87.5339 25.809 86.8633 24.8962 85.4383 24.8962C84.097 24.8132 83.2587 25.809 83.0911 27.4688Z" fill="#00009F"/>
<path d="M95.4136 24.9792C94.8269 24.9792 94.0724 25.1451 93.4856 25.3941V32.2821H92.0605V23.8173L93.0665 24.1493C93.9047 23.8173 94.6592 23.6514 95.4975 23.6514C95.8328 23.6514 96.2519 23.6514 96.5034 23.7344L96.6711 25.0622C96.3357 24.9792 95.9166 24.9792 95.4136 24.9792Z" fill="#00009F"/>
<path d="M104.132 30.8712V32.116C103.377 32.365 102.79 32.531 102.204 32.531C100.778 32.531 99.8564 31.8671 99.8564 29.8754V25.0621H98.2637L98.4313 23.9003H99.8564V21.5766L101.281 21.4106V23.9003H103.964L103.796 25.0621H101.281V29.7924C101.281 30.7053 101.533 31.2032 102.455 31.2032C102.874 31.2862 103.377 31.2032 104.132 30.8712Z" fill="#00009F"/>
<path d="M113.521 23.9004L110.336 32.863C109.581 35.1037 108.911 36.0166 107.15 36.0166C106.731 36.0166 106.144 35.9336 105.641 35.7676L105.474 34.4398C106.06 34.6888 106.647 34.7718 107.066 34.7718C107.988 34.7718 108.491 34.4398 109.078 32.6141L109.162 32.2821H108.659L105.809 23.9004H107.318L109.581 31.0373L112.012 23.9004H113.521Z" fill="#00009F"/>
<path d="M122.658 21.8254V25.8917H127.856L127.688 27.1366H122.658V32.2818H121.149V20.4976H128.191L128.023 21.8254H122.658Z" fill="#00009F"/>
<path d="M130.957 19.4189H132.55V20.9127H130.957V19.4189ZM132.466 32.282H131.041V23.9833L132.466 23.8173V32.282Z" fill="#00009F"/>
<path d="M143.112 26.8049V32.2821H141.687V26.9709C141.687 25.5601 141.1 24.8962 139.675 24.8962C139.005 24.8962 138.25 25.0622 137.663 25.3941V32.3651H136.238V23.8173L137.244 24.1493C138.082 23.8173 138.921 23.6514 139.759 23.6514C142.106 23.6514 143.112 24.8962 143.112 26.8049Z" fill="#00009F"/>
<path d="M153.507 19.3359V32.033C152.585 32.199 151.411 32.448 150.405 32.448C147.89 32.448 146.13 31.2861 146.13 28.1326C146.13 24.9791 147.806 23.5683 150.07 23.5683C150.824 23.5683 151.495 23.6513 152.082 23.8173V19.4189L153.507 19.3359ZM152.082 31.1202V25.2281C151.495 24.9791 150.908 24.8131 150.237 24.8131C148.645 24.8131 147.639 25.892 147.639 28.1326C147.639 30.3733 148.645 31.2032 150.405 31.2032C150.824 31.2861 151.495 31.2032 152.082 31.1202Z" fill="#00009F"/>
<path d="M163.985 28.5476H158.2C158.284 30.5393 159.29 31.2862 161.051 31.2862C161.973 31.2862 162.727 31.1202 163.649 30.7883L163.565 32.0331C162.727 32.365 161.889 32.448 160.967 32.448C158.284 32.448 156.775 31.2032 156.775 28.1327C156.775 25.1451 158.452 23.5684 160.548 23.5684C162.895 23.5684 164.068 25.0621 164.068 27.7177C163.985 28.1327 163.985 28.3816 163.985 28.5476ZM158.2 27.4688H162.643C162.643 25.809 161.973 24.8962 160.548 24.8962C159.206 24.8132 158.368 25.809 158.2 27.4688Z" fill="#00009F"/>
<path d="M170.44 24.9792C169.853 24.9792 169.099 25.1451 168.512 25.3941V32.2821H167.087V23.8173L168.093 24.1493C168.931 23.8173 169.686 23.6514 170.524 23.6514C170.859 23.6514 171.278 23.6514 171.53 23.7344L171.697 25.0622C171.446 24.9792 170.943 24.9792 170.44 24.9792Z" fill="#00009F"/>
<path d="M32.7953 29.1283L25.167 21.5764C24.9994 21.4104 24.9156 21.0785 25.0832 20.9125C25.8377 19.5847 26.2568 18.008 26.2568 16.3482C26.173 11.4519 22.0654 7.46853 17.1196 7.46853C12.09 7.38555 7.98242 11.4519 7.98242 16.4312C7.98242 21.3275 12.0061 25.3938 16.952 25.4768C18.6285 25.4768 20.1374 25.0619 21.5625 24.315C21.8139 24.232 22.0654 24.232 22.2331 24.398L29.8614 31.9499C30.3643 32.4478 31.2026 32.4478 31.7894 31.9499L32.8792 30.871C33.2983 30.4561 33.2983 29.6262 32.7953 29.1283ZM21.4786 19.9167H18.2932V17.925C18.2932 17.676 18.1255 17.3441 17.9579 17.1781L16.952 16.3482L15.946 17.1781C15.6945 17.3441 15.6107 17.593 15.6107 17.925V19.9167H12.4253V15.1034C12.4253 15.0204 12.5091 14.8544 12.5929 14.7714L16.7005 11.7009C16.8681 11.6179 17.0358 11.6179 17.1196 11.7009L21.311 14.7714C21.3948 14.8544 21.4786 14.9374 21.4786 15.1034V19.9167Z" fill="#00009F"/>
<path d="M22.3165 26.9708C20.4723 27.8836 18.4604 28.2986 16.1971 28.1326C10.3291 27.7176 5.55097 22.9873 5.21566 17.1782C4.79653 10.1243 10.6644 4.23216 17.7898 4.73009C23.6577 5.06204 28.4359 9.79233 28.855 15.6015C29.0227 17.7591 28.5197 19.8338 27.6814 21.6595L31.286 25.228C31.4537 24.979 31.5375 24.8131 31.6213 24.6471C33.1302 22.0745 33.8846 19.0039 33.717 15.7674C33.4655 7.21971 26.424 0.331749 17.7898 -0.000201532C8.23345 -0.332152 0.4375 7.21971 0.4375 16.5143C0.4375 19.4189 1.19195 22.2405 2.61701 24.6471C4.29356 27.8836 15.0235 38.0911 16.9515 39.8338C17.1192 39.9998 17.3706 39.9998 17.4545 39.8338C18.5442 38.755 22.7356 34.6056 26.3402 30.8712L22.3165 26.9708Z" fill="#FF7800"/>
</svg>
