<svg width="23" height="23" viewBox="0 0 24 25" fill="none" xmlns="http://www.w3.org/2000/svg">
<g clip-path="url(#clip0_495_6546)">
<path d="M10.4273 5.31577H22.8886C23.2021 5.36802 23.4503 5.25046 23.6332 4.96309C23.816 4.67573 23.816 4.38836 23.6332 4.10099C23.4503 3.81362 23.2021 3.69606 22.8886 3.74831H10.4273C10.2183 3.74831 10.0485 3.82668 9.9179 3.98343C9.78728 4.14018 9.72197 4.32305 9.72197 4.53204C9.72197 4.74104 9.78728 4.92391 9.9179 5.08065C10.0485 5.2374 10.2183 5.31577 10.4273 5.31577ZM0.944196 5.31577H2.51166C2.61615 5.62926 2.79902 5.91663 3.06027 6.17788L3.68725 6.72649C4.10524 7.19672 4.64079 7.43184 5.2939 7.43184C5.94701 7.43184 6.50868 7.19672 6.97892 6.72649L7.52753 6.17788C7.99777 5.70764 8.23289 5.15903 8.23289 4.53204C8.23289 3.90506 7.99777 3.35645 7.52753 2.88621L6.97892 2.3376C6.50868 1.86736 5.94701 1.63224 5.2939 1.63224C4.64079 1.63224 4.07912 1.86736 3.60888 2.3376L3.13864 2.88621C2.8774 3.14745 2.69453 3.43482 2.59003 3.74831H0.944196C0.630704 3.69606 0.382523 3.81362 0.199653 4.10099C0.0167824 4.38836 0.0167824 4.67573 0.199653 4.96309C0.382523 5.25046 0.630704 5.36802 0.944196 5.31577ZM4.15749 3.98343L4.7061 3.43482C4.86285 3.27807 5.05878 3.1997 5.2939 3.1997C5.52902 3.1997 5.69882 3.27807 5.80332 3.43482L6.43031 3.98343C6.58705 4.14018 6.66543 4.32305 6.66543 4.53204C6.66543 4.74104 6.58705 4.92391 6.43031 5.08065L5.8817 5.62926C5.72495 5.78601 5.52902 5.86438 5.2939 5.86438C5.05878 5.86438 4.86285 5.78601 4.7061 5.62926L4.15749 5.08065C4.00074 4.92391 3.92237 4.74104 3.92237 4.53204C3.92237 4.32305 4.00074 4.14018 4.15749 3.98343ZM22.8886 11.5856H17.089C16.7233 11.5334 16.462 11.6509 16.3053 11.9383C16.1486 12.2257 16.1486 12.513 16.3053 12.8004C16.462 13.0878 16.7233 13.2053 17.089 13.1531H22.967C23.1238 13.1531 23.2805 13.0747 23.4372 12.918C23.594 12.7612 23.6724 12.5783 23.6724 12.3693C23.6724 12.1603 23.594 11.9775 23.4372 11.8207C23.2805 11.664 23.1238 11.5856 22.967 11.5856H22.8886ZM0.944196 13.1531H9.17336C9.27786 13.4666 9.46073 13.7539 9.72197 14.0152L10.2706 14.5638C10.7408 15.034 11.2894 15.2691 11.9164 15.2691C12.5434 15.2691 13.092 15.034 13.5622 14.5638L14.1109 14.0152C14.5811 13.5449 14.8162 12.9963 14.8162 12.3693C14.8162 11.7424 14.5811 11.1937 14.1109 10.7235L13.5622 10.1749C13.092 9.70466 12.5434 9.46954 11.9164 9.46954C11.2894 9.46954 10.7408 9.70466 10.2706 10.1749L9.72197 10.7235C9.46073 10.9848 9.27786 11.2721 9.17336 11.5856H0.944196C0.735202 11.6379 0.565393 11.7293 0.434772 11.8599C0.30415 11.9905 0.238839 12.1603 0.238839 12.3693C0.238839 12.5783 0.30415 12.7612 0.434772 12.918C0.565393 13.0747 0.735202 13.1531 0.944196 13.1531ZM10.8192 11.8207L11.3678 11.2721C11.5246 11.1154 11.7074 11.037 11.9164 11.037C12.1254 11.037 12.3083 11.1154 12.465 11.2721L13.0136 11.8207C13.1704 11.9775 13.2488 12.1603 13.2488 12.3693C13.2488 12.5783 13.1704 12.7612 13.0136 12.918L12.465 13.4666C12.3083 13.6233 12.1254 13.7017 11.9164 13.7017C11.7074 13.7017 11.5246 13.6233 11.3678 13.4666L10.8192 12.918C10.6624 12.7612 10.5841 12.5783 10.5841 12.3693C10.5841 12.1603 10.6624 11.9775 10.8192 11.8207ZM20.224 18.0122C19.7537 17.542 19.192 17.3068 18.5389 17.3068C17.8858 17.3068 17.3242 17.542 16.8539 18.0122L16.3053 18.5608C16.0441 18.8221 15.8612 19.1094 15.7567 19.4229H0.944196C0.630704 19.3707 0.382523 19.4882 0.199653 19.7756C0.0167824 20.063 0.0167824 20.3503 0.199653 20.6377C0.382523 20.9251 0.630704 21.0426 0.944196 20.9904H15.7567C15.9134 21.3039 16.0963 21.5912 16.3053 21.8525L16.8539 22.4011C17.3242 22.8713 17.8858 23.1064 18.5389 23.1064C19.192 23.1064 19.7537 22.8713 20.224 22.4011L20.7726 21.8525C21.2428 21.3822 21.4779 20.8336 21.4779 20.2066C21.4779 19.5797 21.2428 19.031 20.7726 18.5608L20.224 18.0122ZM19.6753 20.7553L19.1267 21.3039C18.97 21.4606 18.7871 21.539 18.5781 21.539C18.3691 21.539 18.1863 21.4606 18.0295 21.3039L17.4809 20.7553C17.3242 20.5985 17.2458 20.4156 17.2458 20.2066C17.2458 19.9976 17.3242 19.8148 17.4809 19.658L18.0295 19.1094C18.1863 18.9527 18.3691 18.8743 18.5781 18.8743C18.7871 18.8743 18.97 18.9527 19.1267 19.1094L19.6753 19.658C19.8321 19.8148 19.9105 19.9976 19.9105 20.2066C19.9105 20.4156 19.8321 20.5985 19.6753 20.7553ZM22.8886 20.9904C22.6274 20.9904 22.4184 20.8728 22.2617 20.6377C22.1049 20.4026 22.0788 20.1544 22.1833 19.8932C22.1833 19.7887 22.2355 19.7103 22.34 19.658C22.549 19.3968 22.8233 19.3315 23.1629 19.4621C23.5026 19.5927 23.6724 19.8409 23.6724 20.2066C23.6724 20.4156 23.594 20.5985 23.4372 20.7553C23.2805 20.912 23.0976 20.9904 22.8886 20.9904Z" fill="#FF7800"/>
</g>
<defs>
<clipPath id="clip0_495_6546">
<rect width="23.5119" height="23.5119" fill="white" transform="matrix(1 0 0 -1 0.0625 24.1255)"/>
</clipPath>
</defs>
</svg>
