<svg width="20" height="20" viewBox="0 0 20 20" fill="none" xmlns="http://www.w3.org/2000/svg">
<g clip-path="url(#clip0_495_9142)">
<path d="M13.9746 14.8672C14.2335 14.8672 14.4434 14.6573 14.4434 14.3984C14.4434 14.1396 14.2335 13.9297 13.9746 13.9297C13.7157 13.9297 13.5059 14.1396 13.5059 14.3984C13.5059 14.6573 13.7157 14.8672 13.9746 14.8672Z" fill="#00009F"/>
<path d="M15.54 14.8672C15.7989 14.8672 16.0088 14.6573 16.0088 14.3984C16.0088 14.1396 15.7989 13.9297 15.54 13.9297C15.2812 13.9297 15.0713 14.1396 15.0713 14.3984C15.0713 14.6573 15.2812 14.8672 15.54 14.8672Z" fill="#00009F"/>
<path d="M14.0912 7.92383H11.2793C11.0204 7.92383 10.8105 8.13369 10.8105 8.39258C10.8105 8.65146 11.0204 8.86133 11.2793 8.86133H14.0912C14.3501 8.86133 14.5599 8.65146 14.5599 8.39258C14.5599 8.13369 14.3501 7.92383 14.0912 7.92383Z" fill="#00009F"/>
<path d="M14.0925 9.53125H12.5312C12.2724 9.53125 12.0625 9.74112 12.0625 10C12.0625 10.2589 12.2724 10.4688 12.5312 10.4688H14.0925C14.3514 10.4688 14.5612 10.2589 14.5612 10C14.5612 9.74112 14.3514 9.53125 14.0925 9.53125Z" fill="#00009F"/>
<path d="M14.3731 12.9844L12.6575 12.9831C12.5332 12.983 12.414 12.9334 12.3262 12.8454C12.2384 12.7574 12.1892 12.6381 12.1894 12.5138C12.1895 12.3894 12.2391 12.2703 12.3271 12.1825C12.4151 12.0947 12.5344 12.0455 12.6587 12.0456L14.3744 12.0469C14.7472 12.0462 15.1047 11.8979 15.3685 11.6343C15.6322 11.3708 15.7809 11.0135 15.7819 10.6406V3.14062C15.7819 2.76766 15.6337 2.40998 15.37 2.14626C15.1063 1.88253 14.7486 1.73438 14.3756 1.73438H3.125C2.75204 1.73438 2.39435 1.88253 2.13063 2.14626C1.86691 2.40998 1.71875 2.76766 1.71875 3.14062V9.08062C1.71875 9.20494 1.66936 9.32417 1.58146 9.41208C1.49355 9.49999 1.37432 9.54937 1.25 9.54937C1.12568 9.54937 1.00645 9.49999 0.918544 9.41208C0.830636 9.32417 0.78125 9.20494 0.78125 9.08062V3.14062C0.78125 2.51902 1.02818 1.92288 1.46772 1.48334C1.90726 1.04381 2.5034 0.796875 3.125 0.796875H14.375C14.9966 0.796875 15.5927 1.04381 16.0323 1.48334C16.4718 1.92288 16.7188 2.51902 16.7188 3.14062V10.6406C16.7171 11.262 16.4694 11.8575 16.0298 12.2967C15.5902 12.736 14.9945 12.9832 14.3731 12.9844Z" fill="#00009F"/>
<path d="M16.8753 16.7346H12.344C12.2197 16.7346 12.1005 16.6852 12.0126 16.5973C11.9247 16.5094 11.8753 16.3902 11.8753 16.2659C11.8753 16.1415 11.9247 16.0223 12.0126 15.9344C12.1005 15.8465 12.2197 15.7971 12.344 15.7971H16.8753C17.2482 15.7971 17.6059 15.649 17.8696 15.3852C18.1334 15.1215 18.2815 14.7638 18.2815 14.3909V6.89086C18.2815 6.5179 18.1334 6.16021 17.8696 5.89649C17.6059 5.63277 17.2482 5.48461 16.8753 5.48461H16.2503V4.54711H16.8753C17.4969 4.54711 18.093 4.79404 18.5326 5.23358C18.9721 5.67312 19.219 6.26926 19.219 6.89086V14.3909C19.219 15.0125 18.9721 15.6086 18.5326 16.0481C18.093 16.4877 17.4969 16.7346 16.8753 16.7346ZM1.4209 2.95898H16.3928V3.89648H1.4209V2.95898Z" fill="#00009F"/>
<path d="M1.42 5.4278H16.3919V6.3653H1.42V5.4278ZM16.0258 5.39453H18.5402L18.7494 8.87905H16.235L16.0258 5.39453ZM6.25 19.2122C3.23438 19.2122 0.78125 16.7591 0.78125 13.7434C0.78125 10.7278 3.23438 8.27468 6.25 8.27468C9.26562 8.27468 11.7188 10.7278 11.7188 13.7434C11.7188 16.7591 9.26562 19.2122 6.25 19.2122ZM6.25 9.21218C3.75125 9.21218 1.71875 11.2447 1.71875 13.7434C1.71875 16.2422 3.75125 18.2747 6.25 18.2747C8.74875 18.2747 10.7812 16.2422 10.7812 13.7434C10.7812 11.2447 8.74875 9.21218 6.25 9.21218Z" fill="#00009F"/>
<path d="M6.25 8.57729C4.92392 8.57729 3.65215 9.10408 2.71447 10.0418C1.77678 10.9794 1.25 12.2512 1.25 13.5773C1.25 14.9034 1.77678 16.1751 2.71447 17.1128C3.65215 18.0505 4.92392 18.5773 6.25 18.5773C7.57608 18.5773 8.84785 18.0505 9.78553 17.1128C10.7232 16.1751 11.25 14.9034 11.25 13.5773C11.25 12.2512 10.7232 10.9794 9.78553 10.0418C8.84785 9.10408 7.57608 8.57729 6.25 8.57729ZM6.71875 16.4123C6.23793 16.5002 5.74215 16.4532 5.28648 16.2763C4.8308 16.0994 4.43308 15.7997 4.1375 15.4104C3.71021 14.8488 3.52332 14.1406 3.61789 13.4413C3.71247 12.7421 4.08077 12.1089 4.64187 11.681L4.45125 11.5867C4.34074 11.5309 4.25676 11.4338 4.21761 11.3164C4.17846 11.199 4.18733 11.0709 4.24227 10.96C4.29722 10.8491 4.3938 10.7644 4.51093 10.7245C4.62805 10.6845 4.75623 10.6925 4.8675 10.7467L6.01062 11.3135C6.08581 11.3509 6.1455 11.4135 6.17931 11.4903C6.21311 11.5672 6.21889 11.6535 6.19562 11.7342L5.8425 12.9604C5.82613 13.0203 5.79801 13.0764 5.75977 13.1254C5.72154 13.1743 5.67395 13.2152 5.61978 13.2456C5.56561 13.276 5.50593 13.2954 5.44422 13.3025C5.38251 13.3097 5.31999 13.3045 5.26031 13.2872C5.20062 13.27 5.14496 13.2411 5.09655 13.2021C5.04814 13.1632 5.00795 13.115 4.97832 13.0604C4.94869 13.0058 4.93021 12.9459 4.92396 12.8841C4.9177 12.8223 4.92379 12.7598 4.94187 12.7004L4.94812 12.6798C4.67557 12.9973 4.52791 13.4032 4.53274 13.8216C4.53758 14.24 4.69456 14.6424 4.97438 14.9535C5.15146 15.1542 5.37406 15.3095 5.62352 15.4064C5.87298 15.5032 6.14203 15.5389 6.40812 15.5104C6.67932 15.4842 6.94044 15.3941 7.17011 15.2475C7.39977 15.1009 7.59145 14.902 7.72943 14.667C7.86742 14.4321 7.94779 14.1678 7.96397 13.8959C7.98014 13.6239 7.93166 13.3519 7.8225 13.1023C7.69441 12.8128 7.47631 12.5723 7.20062 12.4167C6.99375 12.2948 6.89 12.0535 6.9675 11.826C7.06687 11.5323 7.41813 11.3885 7.68 11.5542C8.12303 11.8355 8.47174 12.243 8.68125 12.7242C8.84257 13.0923 8.91845 13.4922 8.90321 13.8938C8.88797 14.2954 8.782 14.6884 8.59325 15.0432C8.40449 15.3981 8.13785 15.7056 7.81332 15.9427C7.4888 16.1798 7.11417 16.3403 6.71875 16.4123ZM1.25 1.59375H16.1331V7.39708H1.25V1.59375Z" fill="#00009F"/>
</g>
<defs>
<clipPath id="clip0_495_9142">
<rect width="20" height="20" fill="white"/>
</clipPath>
</defs>
</svg>
