<svg width="13" height="13" viewBox="0 0 13 13" fill="none" xmlns="http://www.w3.org/2000/svg">
<path d="M5.13187 10.5162L4.48485 9.89895L3.42137 10.9401L3.347 2.88591L4.46254 4.04607L5.13187 3.33956L2.77436 0.974609L0.394531 3.33212L1.06386 4.03863L2.1794 2.87847L2.26864 10.9476L1.07873 9.82458L0.394531 10.5162L2.76692 12.8737L5.13187 10.5162ZM11.6764 12.2788C11.8342 12.2788 11.9855 12.2161 12.0971 12.1045C12.2087 11.9929 12.2713 11.8416 12.2713 11.6838V2.16452C12.2713 2.00673 12.2087 1.8554 12.0971 1.74382C11.9855 1.63225 11.8342 1.56957 11.6764 1.56957H8.10665C8.02852 1.56957 7.95115 1.58495 7.87897 1.61485C7.80678 1.64475 7.7412 1.68858 7.68595 1.74382C7.6307 1.79907 7.58688 1.86466 7.55698 1.93684C7.52708 2.00902 7.51169 2.08639 7.51169 2.16452V11.6838C7.51169 11.7619 7.52708 11.8393 7.55698 11.9115C7.58688 11.9837 7.6307 12.0493 7.68595 12.1045C7.7412 12.1598 7.80678 12.2036 7.87897 12.2335C7.95115 12.2634 8.02852 12.2788 8.10665 12.2788H11.6764ZM11.0814 11.0889H8.7016V9.89895H9.89152V8.70904H8.7016V7.51912H9.89152V6.32921H8.7016V5.1393H9.89152V3.94939H8.7016V2.75948H11.0814V11.0889Z" fill="#FF7800"/>
</svg>
