<svg width="72" height="73" viewBox="0 0 72 73" fill="none" xmlns="http://www.w3.org/2000/svg">
<path d="M12.5197 32.5062L12.5197 32.5062C12.6598 33.9067 13.8396 34.9504 15.2175 34.9504C15.3081 34.9504 15.3992 34.9458 15.4895 34.9367L15.4896 34.9367C16.9813 34.7875 18.0694 33.4568 17.9202 31.9661C17.5645 28.412 18.7781 24.9602 21.245 22.4932C22.3051 21.434 22.3051 19.7151 21.2449 18.6559C20.1855 17.5958 18.4669 17.5958 17.4075 18.656C13.7827 22.2808 12.0023 27.3296 12.5197 32.5062Z" fill="#FF7800" stroke="#FF7800" stroke-width="0.5"/>
<path d="M30.8256 3.40674C15.1549 3.40674 2.40625 16.1554 2.40625 31.8261C2.40625 47.4968 15.1549 60.2454 30.8256 60.2454C46.4963 60.2454 59.2449 47.4968 59.2449 31.8261C59.2449 16.1554 46.4961 3.40674 30.8256 3.40674ZM30.8256 54.8178C18.1479 54.8178 7.83389 44.5038 7.83389 31.8261C7.83389 19.1483 18.1479 8.83438 30.8256 8.83438C43.5025 8.83438 53.8173 19.1483 53.8173 31.8261C53.8173 44.5038 43.5033 54.8178 30.8256 54.8178Z" fill="#FF7800" stroke="#FF7800" stroke-width="0.5"/>
<path d="M50.8942 48.0573L68.7978 65.9608C68.7978 65.9608 68.7979 65.9608 68.7979 65.9608C69.8579 67.0202 69.8579 68.7389 68.7979 69.7982C68.268 70.3281 67.5739 70.5932 66.8795 70.5933C66.8794 70.5933 66.8793 70.5933 66.8792 70.5933V70.3433C66.5556 70.3437 66.2351 70.2802 65.9361 70.1563C65.6372 70.0324 65.3657 69.8506 65.1373 69.6215L50.8942 48.0573ZM50.8942 48.0573C49.8341 46.9972 48.1171 46.9972 47.0569 48.0573L50.8942 48.0573ZM47.0569 51.8948L64.9602 69.798L47.0568 48.0573C45.9967 49.1167 45.9967 50.8354 47.0568 51.8947C47.0569 51.8948 47.0569 51.8948 47.0569 51.8948Z" fill="#FF7800" stroke="#FF7800" stroke-width="0.5"/>
</svg>
