<svg width="72" height="73" viewBox="0 0 72 73" fill="none" xmlns="http://www.w3.org/2000/svg">
<path fill-rule="evenodd" clip-rule="evenodd" d="M17.6682 21.505C18.0073 22.2271 18.7275 22.6896 19.5265 22.6896H29.5076V26.2154C29.5076 27.3496 30.4276 28.2685 31.5655 28.2685C32.6974 28.2685 33.6174 27.3496 33.6174 26.2154V22.6896H34.5617C35.6995 22.6896 36.6135 21.7707 36.6135 20.6359C36.6135 19.5023 35.6995 18.5834 34.5617 18.5834H33.6174V6.26233C33.6174 5.39865 33.0787 4.62746 32.2676 4.33397C31.4566 4.03862 30.5426 4.28249 29.9917 4.94464L17.9527 19.3181C17.4381 19.9288 17.3292 20.7824 17.6682 21.505ZM69.75 37.2713C69.75 46.3166 66.2278 54.8285 59.8315 61.2248C53.4344 67.6217 44.9216 71.1463 35.875 71.1463C26.8284 71.1463 18.3156 67.6217 11.9186 61.2248C5.52221 54.8285 2 46.3166 2 37.2713C2 35.5715 3.37829 34.1911 5.07839 34.1911C6.78167 34.1911 8.15678 35.5687 8.15678 37.2713C8.15678 52.5521 20.5949 64.987 35.8749 64.987C51.155 64.987 63.5931 52.5521 63.5931 37.2713C63.5931 23.4113 53.2456 11.5835 39.495 9.79035C37.8126 9.57096 36.6251 8.02105 36.8423 6.3396C37.0597 4.65657 38.6112 3.46314 40.2933 3.6828C48.4012 4.74152 55.8364 8.71204 61.2544 14.835C66.7366 21.0302 69.75 28.9991 69.75 37.2713ZM29.5074 11.9119V18.5833H23.9268L29.5074 11.9119ZM39.9002 55.5229C39.2888 56.4775 39.5672 57.748 40.5236 58.3586C40.852 58.5703 41.2344 58.683 41.6251 58.6831C42.303 58.6831 42.9628 58.3496 43.3562 57.7376L56.1397 37.7846C56.5452 37.1514 56.5694 36.3495 56.2123 35.6915C56.0347 35.3684 55.7737 35.0989 55.4564 34.9111C55.1391 34.7233 54.7773 34.6241 54.4086 34.6238H42.7388C41.6008 34.6238 40.687 35.5426 40.687 36.6769C40.687 37.8112 41.6009 38.7301 42.7388 38.7301H50.6559L39.9002 55.5229ZM50.6498 17.7965C51.4488 18.5985 51.4488 19.8986 50.6498 20.7008L20.3859 50.9646C19.9805 51.3653 19.4599 51.5656 18.9333 51.5656C18.4067 51.5656 17.8801 51.3653 17.4806 50.9646C16.6816 50.1626 16.6816 48.863 17.4806 48.0612L47.7445 17.7965C48.5435 16.9945 49.8449 16.9945 50.6498 17.7965ZM14.6358 13.4954C15.1563 11.5925 14.8295 10.158 13.6612 9.23301C12.3478 8.1973 10.1749 8.01522 8.69799 8.81711C7.57826 9.4266 7.08191 10.4798 7.2272 11.9464C7.33015 13.0758 6.50696 14.0795 5.37506 14.1872C4.24925 14.2937 3.24451 13.4687 3.13547 12.3405C2.83894 9.21726 4.1463 6.61881 6.73694 5.21154C9.6363 3.63053 13.619 3.96835 16.2095 6.01356C18.6791 7.96918 19.5507 11.0907 18.6003 14.5771C17.9587 16.9304 15.7555 18.6464 13.2133 20.6341C11.8333 21.7079 10.3503 22.8639 9.10952 24.1622H17.6137C18.7456 24.1622 19.6657 25.0809 19.6657 26.2154C19.6657 27.3496 18.7456 28.2685 17.6137 28.2685H5.12073C4.77306 28.2678 4.43124 28.1789 4.12727 28.0101C3.82331 27.8414 3.56712 27.5982 3.38269 27.3035C3.19826 27.0088 3.0916 26.6721 3.07271 26.3249C3.05382 25.9777 3.12331 25.6315 3.27468 25.3185C4.94527 21.875 7.99588 19.4957 10.6832 17.3978C12.487 15.9886 14.3574 14.5322 14.6358 13.4954Z" fill="#FF7800"/>
</svg>
